<svg width="745" height="544" viewBox="0 0 745 544" fill="none" xmlns="http://www.w3.org/2000/svg">
<g id="Illustration">
<g id="Shape">
<g id="Group 59">
<path id="Path" opacity="0.0845424" d="M673.32 164.249C682.698 151.73 700.454 149.18 712.979 158.552C725.379 167.83 728.005 185.315 718.957 197.81L718.68 198.187L644.38 297.373C634.916 310.007 617.34 313.21 604.041 304.802L603.639 304.544L556.865 273.948L509.705 342.593C500.937 355.356 483.564 358.693 470.702 350.17L470.313 349.908C457.543 341.146 454.204 323.783 462.732 310.928L462.994 310.539L524.793 220.586C533.999 207.185 552.141 203.492 565.841 212.144L566.255 212.41L613.898 243.574L673.32 164.249Z" fill="#7367F0"/>
<path id="Path_2" opacity="0.0845424" d="M430.118 3.29424C432.496 -0.160162 437.232 -1.03872 440.696 1.33194C444.115 3.67139 445.018 8.30087 442.756 11.7421L442.664 11.8791L424.148 38.779C421.433 42.5698 416.181 43.4829 412.345 40.8606L412.208 40.7654L401.574 33.1946L390.048 51.4538C387.839 54.9536 383.234 56.0368 379.696 53.9185L379.557 53.8332C376.047 51.6305 374.96 47.0392 377.085 43.5109L377.17 43.3722L392.455 19.158C394.973 15.169 400.257 13.9705 404.258 16.4812L404.467 16.6168L404.673 16.7584L415.53 24.4883L430.118 3.29424Z" fill="#7367F0"/>
<path id="+" opacity="0.070266" fill-rule="evenodd" clip-rule="evenodd" d="M632.403 129.308C633.784 129.308 634.903 128.189 634.903 126.808V108.831H652.892C654.273 108.831 655.392 107.711 655.392 106.331V97.676C655.392 96.2953 654.273 95.176 652.892 95.176H634.903V77.0663C634.903 75.6856 633.784 74.5663 632.403 74.5663H623.608C622.227 74.5663 621.108 75.6856 621.108 77.0663V95.176H603.119C601.738 95.176 600.619 96.2953 600.619 97.676V106.331C600.619 107.711 601.738 108.831 603.119 108.831H621.108V126.808C621.108 128.189 622.227 129.308 623.608 129.308H632.403Z" fill="#00CFE8"/>
<path id="Oval" opacity="0.0739397" fill-rule="evenodd" clip-rule="evenodd" d="M91.6026 20C142.194 20 183.207 60.9886 183.207 111.551C183.207 162.113 142.194 203.101 91.6026 203.101C41.0112 203.101 -0.00132751 162.113 -0.00132751 111.551C-0.00132751 60.9886 41.0112 20 91.6026 20ZM91.6026 65.3034C66.0461 65.3034 45.3285 86.0089 45.3285 111.551C45.3285 137.092 66.0461 157.798 91.6026 157.798C117.159 157.798 137.877 137.092 137.877 111.551C137.877 86.0089 117.159 65.3034 91.6026 65.3034Z" fill="#00CFE8"/>
</g>
</g>
<g id="Meeting">
<g id="Group 63">
<path id="Rectangle" fill-rule="evenodd" clip-rule="evenodd" d="M60.5963 101C60.5963 92.1634 67.7597 85 76.5963 85H546.725C555.561 85 562.725 92.1634 562.725 101V305.224C562.725 314.061 555.561 321.224 546.725 321.224H76.5963C67.7597 321.224 60.5963 314.061 60.5963 305.224V101Z" fill="#E7FCFF"/>
<path id="Rectangle_2" opacity="0.383371" fill-rule="evenodd" clip-rule="evenodd" d="M68.147 101C68.147 92.1634 75.3105 85 84.147 85H546.725C555.561 85 562.725 92.1634 562.725 101V305.224C562.725 314.061 555.561 321.224 546.725 321.224H84.1471C75.3105 321.224 68.147 314.061 68.147 305.224V101Z" fill="#00CFE8"/>
<path id="Rectangle_3" fill-rule="evenodd" clip-rule="evenodd" d="M75.6979 102.559C75.6979 97.0363 80.175 92.5592 85.6979 92.5592H545.174C550.697 92.5592 555.174 97.0363 555.174 102.559V303.665C555.174 309.188 550.697 313.665 545.174 313.665H85.6979C80.175 313.665 75.6979 309.188 75.6979 303.665L75.6979 102.559Z" fill="#E7FCFF"/>
<path id="Rectangle_4" fill-rule="evenodd" clip-rule="evenodd" d="M274.85 299.822C274.85 296.509 277.537 293.822 280.85 293.822H350.021C353.335 293.822 356.021 296.509 356.021 299.822V313.665H274.85V299.822Z" fill="#D4EFFF"/>
<path id="Rectangle_5" d="M282.401 299.822C282.401 296.509 285.087 293.822 288.401 293.822H357.572C360.886 293.822 363.572 296.509 363.572 299.822V321.224H282.401V299.822Z" fill="#91D6FF"/>
</g>
<g id="ElementCard20">
<g id="Rectangle_6" filter="url(#filter0_dd_0_118)">
<path fill-rule="evenodd" clip-rule="evenodd" d="M89.8556 107.397C89.8556 104.421 92.2682 102.008 95.2444 102.008H220.268C223.244 102.008 225.657 104.421 225.657 107.397V148.047C225.657 151.023 223.244 153.436 220.268 153.436H95.2444C92.2682 153.436 89.8556 151.023 89.8556 148.047V107.397Z" fill="white"/>
</g>
<path id="Rectangle_7" opacity="0.454078" fill-rule="evenodd" clip-rule="evenodd" d="M130.036 132.559C130.036 131.716 130.72 131.032 131.564 131.032H156.992C157.835 131.032 158.519 131.716 158.519 132.559C158.519 133.403 157.835 134.087 156.992 134.087H131.564C130.72 134.087 130.036 133.403 130.036 132.559Z" fill="#C7C1FF"/>
<path id="Rectangle_8" fill-rule="evenodd" clip-rule="evenodd" d="M130.036 123.903C130.036 123.059 130.72 122.376 131.564 122.376H146.819C147.663 122.376 148.347 123.059 148.347 123.903C148.347 124.747 147.663 125.431 146.819 125.431H131.564C130.72 125.431 130.036 124.747 130.036 123.903Z" fill="#8478FF"/>
<g id="Group 9">
<path id="Path_3" fill-rule="evenodd" clip-rule="evenodd" d="M204.812 120.284C206.982 117.429 211.053 116.876 213.904 119.049C214.56 119.548 215.115 120.169 215.539 120.876C215.757 121.241 215.639 121.714 215.275 121.933C214.91 122.151 214.438 122.033 214.22 121.668C213.896 121.128 213.473 120.655 212.973 120.274C210.842 118.651 207.818 119.022 206.14 121.085L206.036 121.216L203.652 124.353C199.927 129.254 193.624 131.414 187.693 129.848L187.439 129.779L185.52 129.237C185.397 129.202 185.272 129.171 185.147 129.143C181.639 128.369 178.168 130.541 177.309 134.011L177.269 134.182L176.873 135.98C176.733 136.617 176.461 137.217 176.076 137.741C174.55 139.817 171.633 140.262 169.559 138.735C169.217 138.483 169.144 138.001 169.395 137.659C169.647 137.316 170.128 137.243 170.47 137.495C171.86 138.518 173.815 138.22 174.837 136.829C175.063 136.521 175.23 136.175 175.332 135.808L175.371 135.649L175.767 133.851C176.735 129.451 181.083 126.67 185.478 127.639L185.709 127.694L185.938 127.755L187.857 128.297C193.171 129.799 198.857 127.946 202.272 123.622L202.428 123.421L204.812 120.284Z" fill="#8478FF"/>
<path id="Path_4" fill-rule="evenodd" clip-rule="evenodd" d="M197.882 119.353C199.452 115.857 203.557 114.297 207.049 115.869C207.751 116.184 208.395 116.615 208.956 117.143C210.275 118.384 211.496 120.347 212.641 123.035C212.808 123.426 212.627 123.878 212.236 124.045C211.845 124.212 211.393 124.03 211.227 123.639C210.158 121.13 209.042 119.338 207.902 118.264C207.466 117.854 206.964 117.519 206.418 117.273C203.75 116.072 200.623 117.22 199.353 119.838L199.285 119.985L198.79 121.086C198.674 121.343 198.542 121.591 198.394 121.83C196.566 124.766 192.707 125.664 189.774 123.834C189.425 123.616 189.042 123.458 188.641 123.366C186.689 122.919 184.744 124.102 184.23 126.022L184.196 126.157L183.34 129.899C183.082 131.026 182.535 132.067 181.753 132.917C179.312 135.571 175.214 135.785 172.513 133.434L172.369 133.305L168.883 130.092C168.57 129.804 168.55 129.317 168.838 129.004C169.106 128.712 169.548 128.675 169.86 128.906L169.925 128.959L173.411 132.173C175.484 134.084 178.712 133.95 180.621 131.875C181.176 131.271 181.577 130.543 181.792 129.754L181.841 129.555L182.697 125.813C183.344 122.985 186.159 121.217 188.984 121.865C189.481 121.979 189.958 122.165 190.4 122.416L190.588 122.527C192.8 123.907 195.71 123.23 197.088 121.016C197.163 120.896 197.232 120.772 197.296 120.646L197.387 120.455L197.882 119.353Z" fill="#C7C1FF"/>
</g>
<ellipse id="Oval_2" cx="112.489" cy="128.231" rx="10.4267" ry="10.4383" fill="#8478FF"/>
</g>
<g id="ElementCard3">
<g id="Rectangle_9" filter="url(#filter1_dd_0_118)">
<path fill-rule="evenodd" clip-rule="evenodd" d="M89.8556 165.592C89.8556 162.83 92.0942 160.592 94.8556 160.592H253.805C256.566 160.592 258.805 162.83 258.805 165.592V298.271C258.805 301.033 256.566 303.271 253.805 303.271H94.8556C92.0942 303.271 89.8556 301.033 89.8556 298.271V165.592Z" fill="white"/>
</g>
<mask id="mask0_0_118" style="mask-type:luminance" maskUnits="userSpaceOnUse" x="89" y="160" width="170" height="144">
<path id="Rectangle_10" fill-rule="evenodd" clip-rule="evenodd" d="M89.8556 165.592C89.8556 162.83 92.0942 160.592 94.8556 160.592H253.805C256.566 160.592 258.805 162.83 258.805 165.592V298.271C258.805 301.033 256.566 303.271 253.805 303.271H94.8556C92.0942 303.271 89.8556 301.033 89.8556 298.271V165.592Z" fill="white"/>
</mask>
<g mask="url(#mask0_0_118)">
<g id="Path 3" filter="url(#filter2_d_0_118)">
<path d="M112.508 270.2C112.508 270.2 132.593 264.425 141.449 252.639C150.305 240.853 153.291 229.428 168.522 229.428C183.754 229.428 185.707 246.926 202.172 246.926C218.638 246.926 219.538 224.612 225.011 215.752C230.483 206.892 239.928 206.892 239.928 206.892" stroke="#8EEAF6" stroke-width="4.004" stroke-linecap="round"/>
</g>
<path id="Path 3_2" opacity="0.414737" fill-rule="evenodd" clip-rule="evenodd" d="M112.508 268.982C112.508 268.982 132.593 263.232 141.449 251.497C150.305 239.761 153.291 228.386 168.522 228.386C183.754 228.386 185.707 245.808 202.172 245.808C218.638 245.808 219.538 223.591 225.011 214.769C230.483 205.947 239.928 205.947 239.928 205.947V280.349C239.928 282.05 238.549 283.429 236.848 283.429H115.588C113.887 283.429 112.508 282.05 112.508 280.349V268.982Z" fill="#CEF9FF"/>
<rect id="Rectangle_11" x="103.07" y="174.765" width="52.8556" height="5.66939" rx="2.83469" fill="#8EEAF6"/>
<path id="Rectangle_12" fill-rule="evenodd" clip-rule="evenodd" d="M103.07 191.773C103.07 190.208 104.339 188.939 105.904 188.939H124.775C126.34 188.939 127.61 190.208 127.61 191.773C127.61 193.339 126.34 194.608 124.775 194.608H105.904C104.339 194.608 103.07 193.339 103.07 191.773Z" fill="#8EEAF6" fill-opacity="0.401934"/>
<ellipse id="Oval_3" cx="226.242" cy="178.072" rx="3.30348" ry="3.30714" fill="#8EEAF6" fill-opacity="0.451705"/>
<ellipse id="Oval_4" cx="235.68" cy="178.072" rx="3.30348" ry="3.30714" fill="#8EEAF6" fill-opacity="0.451705"/>
<ellipse id="Oval_5" cx="245.119" cy="178.072" rx="3.30348" ry="3.30714" fill="#8EEAF6" fill-opacity="0.451705"/>
</g>
</g>
<g id="ElementCard11">
<g id="Rectangle_13" filter="url(#filter3_d_0_118)">
<path fill-rule="evenodd" clip-rule="evenodd" d="M285.233 122.721C285.233 118.588 288.583 115.237 292.717 115.237H517.929C522.063 115.237 525.414 118.588 525.414 122.721V273.237C525.414 277.371 522.063 280.721 517.929 280.721H292.717C288.583 280.721 285.233 277.371 285.233 273.237V122.721Z" fill="white"/>
</g>
<g id="Group 26">
<path id="Path_5" fill-rule="evenodd" clip-rule="evenodd" d="M325.851 200.101V259.287H317.021V200.101H325.851Z" fill="#E7E4FF"/>
<path id="Path_6" fill-rule="evenodd" clip-rule="evenodd" d="M325.851 214.245V259.287H317.021V214.245H325.851Z" fill="#C7C1FF"/>
<path id="Path_7" fill-rule="evenodd" clip-rule="evenodd" d="M325.851 242.533V259.287H317.021V242.533H325.851Z" fill="#8478FF"/>
</g>
<g id="Group 26_2">
<path id="Path_8" fill-rule="evenodd" clip-rule="evenodd" d="M347.044 185.957V259.287H338.214V185.957H347.044Z" fill="#E7E4FF"/>
<path id="Path_9" fill-rule="evenodd" clip-rule="evenodd" d="M347.044 207.173V259.287H338.214V207.173H347.044Z" fill="#C7C1FF"/>
<path id="Path_10" fill-rule="evenodd" clip-rule="evenodd" d="M347.044 242.533V259.287H338.214V242.533H347.044Z" fill="#8478FF"/>
</g>
<g id="Group 26_3">
<path id="Path_11" fill-rule="evenodd" clip-rule="evenodd" d="M368.236 196.565V259.287H359.406V196.565H368.236Z" fill="#E7E4FF"/>
<path id="Path_12" fill-rule="evenodd" clip-rule="evenodd" d="M368.236 217.781V259.287H359.406V217.781H368.236Z" fill="#C7C1FF"/>
<path id="Path_13" fill-rule="evenodd" clip-rule="evenodd" d="M368.236 246.069V259.287H359.406V246.069H368.236Z" fill="#8478FF"/>
</g>
<g id="Group 26_4">
<path id="Path_14" fill-rule="evenodd" clip-rule="evenodd" d="M389.429 178.885V259.287H380.599V178.885H389.429Z" fill="#E7E4FF"/>
<path id="Path_15" fill-rule="evenodd" clip-rule="evenodd" d="M389.429 200.101V259.287H380.599V200.101H389.429Z" fill="#C7C1FF"/>
<path id="Path_16" fill-rule="evenodd" clip-rule="evenodd" d="M389.429 228.389V259.287H380.599V228.389H389.429Z" fill="#8478FF"/>
</g>
<g id="Group 26_5">
<path id="Path_17" fill-rule="evenodd" clip-rule="evenodd" d="M410.621 164.741V259.287H401.791V164.741H410.621Z" fill="#E7E4FF"/>
<path id="Path_18" fill-rule="evenodd" clip-rule="evenodd" d="M410.621 193.029V259.287H401.791V193.029H410.621Z" fill="#C7C1FF"/>
<path id="Path_19" fill-rule="evenodd" clip-rule="evenodd" d="M410.621 235.461V259.287H401.791V235.461H410.621Z" fill="#8478FF"/>
</g>
<g id="Group 26_6">
<path id="Path_20" fill-rule="evenodd" clip-rule="evenodd" d="M431.814 185.957V259.287H422.984V185.957H431.814Z" fill="#E7E4FF"/>
<path id="Path_21" fill-rule="evenodd" clip-rule="evenodd" d="M431.814 207.173V259.287H422.984V207.173H431.814Z" fill="#C7C1FF"/>
<path id="Path_22" fill-rule="evenodd" clip-rule="evenodd" d="M431.814 239.704V259.287H422.984V239.704H431.814Z" fill="#8478FF"/>
</g>
<g id="Group 26_7">
<path id="Path_23" fill-rule="evenodd" clip-rule="evenodd" d="M453.006 193.029V259.287H444.176V193.029H453.006Z" fill="#E7E4FF"/>
<path id="Path_24" fill-rule="evenodd" clip-rule="evenodd" d="M453.006 207.173V259.287H444.176V207.173H453.006Z" fill="#C7C1FF"/>
<path id="Path_25" fill-rule="evenodd" clip-rule="evenodd" d="M453.006 234.753V259.287H444.176V234.753H453.006Z" fill="#8478FF"/>
</g>
<g id="Group 26_8">
<path id="Path_26" fill-rule="evenodd" clip-rule="evenodd" d="M474.199 178.885V259.287H465.369V178.885H474.199Z" fill="#E7E4FF"/>
<path id="Path_27" fill-rule="evenodd" clip-rule="evenodd" d="M474.199 207.173V259.287H465.369V207.173H474.199Z" fill="#C7C1FF"/>
<path id="Path_28" fill-rule="evenodd" clip-rule="evenodd" d="M474.199 241.825V259.287H465.369V241.825H474.199Z" fill="#8478FF"/>
</g>
<g id="Group 26_9">
<path id="Path_29" fill-rule="evenodd" clip-rule="evenodd" d="M495.391 193.029V259.287H486.561V193.029H495.391Z" fill="#E7E4FF"/>
<path id="Path_30" fill-rule="evenodd" clip-rule="evenodd" d="M495.391 207.173V259.287H486.561V207.173H495.391Z" fill="#C7C1FF"/>
<path id="Path_31" fill-rule="evenodd" clip-rule="evenodd" d="M495.391 241.825V259.287H486.561V241.825H495.391Z" fill="#8478FF"/>
</g>
<path id="Rectangle_14" opacity="0.57573" fill-rule="evenodd" clip-rule="evenodd" d="M314.196 145.646C314.196 144.475 315.145 143.525 316.317 143.525H386.954C388.126 143.525 389.076 144.475 389.076 145.646C389.076 146.818 388.126 147.768 386.954 147.768H316.317C315.145 147.768 314.196 146.818 314.196 145.646Z" fill="#8C81FF"/>
<rect id="Rectangle_15" x="314.196" y="131.502" width="39.5593" height="4.2432" rx="2.1216" fill="#8478FF"/>
</g>
<g id="Chair4">
<path id="Path_32" fill-rule="evenodd" clip-rule="evenodd" d="M558.04 449.882L569.483 540.29L563.483 540.21L552.04 450.728L558.04 449.882Z" fill="#BFE7FF"/>
<path id="Path_33" fill-rule="evenodd" clip-rule="evenodd" d="M480.616 464.093C475.4 464.093 471.171 459.864 471.171 454.648C471.171 449.431 475.4 445.203 480.616 445.203H518.379C524.1 445.203 528.882 440.849 529.418 435.153L535.456 370.96C535.992 365.264 540.774 360.91 546.495 360.91H570.195C576.654 360.91 581.745 366.408 581.251 372.848L575.026 453.855C574.582 459.632 569.765 464.093 563.971 464.093H480.616Z" fill="#91D6FF"/>
<path id="Combined Shape" d="M569.942 360.91C570.518 360.91 571.083 360.955 571.634 361.039C571.764 361.872 571.801 362.734 571.734 363.614L565.514 444.332C565.069 450.108 560.252 454.568 554.459 454.568H471.329C471.278 454.568 471.226 454.565 471.175 454.565C471.174 454.504 471.171 454.444 471.171 454.384C471.171 449.181 475.389 444.963 480.592 444.963H518.241C523.962 444.963 528.743 440.611 529.281 434.916L535.314 370.957C535.851 365.262 540.632 360.91 546.353 360.91H569.942Z" fill="#BFE7FF"/>
</g>
<g id="Wom1.4">
<g id="Head">
<path id="Path_34" fill-rule="evenodd" clip-rule="evenodd" d="M545.275 345.34C557.473 342.498 558.276 325.746 549.002 319.935C558.567 299.875 536.449 279.958 521.299 292.241C511.367 287.987 503.114 304.586 512.356 317.478C508.481 339.613 516.367 345.335 530.583 345.578L545.275 345.34Z" fill="#422851"/>
<path id="Path_35" fill-rule="evenodd" clip-rule="evenodd" d="M545.123 341.339C545.123 341.339 539.189 339.946 538.983 330.217C538.778 320.489 538.922 317.169 538.922 317.169L525.852 316.933C525.852 316.933 525.709 327.775 525.707 331.696C525.702 342.229 518.367 341.339 518.367 341.339C518.367 341.339 519.891 349.88 531.735 350.546C540.982 351.067 545.123 341.339 545.123 341.339Z" fill="url(#paint0_linear_0_118)"/>
<path id="Path_36" fill-rule="evenodd" clip-rule="evenodd" d="M541.969 312.311C547.8 312.085 546.849 320.625 540.792 320.614C540.792 320.614 537.274 332.746 525.06 332.746C515.14 332.746 514.495 318.606 514.405 315.785C514.308 312.777 514.296 302.896 514.296 302.896L542.196 302.883L541.969 312.311Z" fill="url(#paint1_linear_0_118)"/>
<path id="Path_37" d="M527.414 324.596C527.414 324.596 524.505 327.06 521.136 324.752" stroke="#F77B7B" stroke-width="1.5" stroke-linecap="round"/>
<path id="Path_38" d="M525.494 327.45C524.589 327.868 523.717 327.898 522.939 327.482" stroke="#F49494" stroke-linecap="round"/>
<path id="Path 8" d="M541.375 316.904C541.315 315.534 541.732 314.446 543.129 314.227" stroke="#F77B7B" stroke-linecap="round"/>
<path id="Path_39" fill-rule="evenodd" clip-rule="evenodd" d="M542.892 311.256C542.892 311.256 539.696 315.546 539.048 315.569C538.401 315.592 538.174 309.989 538.174 309.989C534.254 309.689 524.332 307.712 521.9 303.107C520.199 307.171 516.948 308.975 514.812 308.629L514.407 317.262L513.41 299.906H543.673L542.892 311.256Z" fill="#422851"/>
</g>
<g id="LLeg">
<path id="Path_40" fill-rule="evenodd" clip-rule="evenodd" d="M485.404 512.891C485.404 512.891 490.635 523.462 486.347 526.793C482.052 530.125 470.708 536.368 470.708 536.368L500.762 534.478L494.081 511.424L485.404 512.891Z" fill="url(#paint2_linear_0_118)"/>
<path id="Path_41" fill-rule="evenodd" clip-rule="evenodd" d="M497.855 522.951C496.372 523.125 497.955 528.121 494.744 528.501C491.539 528.88 489.982 524.147 486.345 525.647C482.708 527.148 469.444 534.906 468.922 538.078C468.393 541.249 473.335 542.182 480.112 541.466C486.889 540.75 488.139 538.337 493.226 539.309C498.307 540.28 502.114 538.732 501.946 535.017C501.779 531.303 499.338 522.778 497.855 522.951Z" fill="#222D4E"/>
<path id="Path 14" fill-rule="evenodd" clip-rule="evenodd" d="M484.686 526.417L485.346 527.407C485.67 527.893 485.511 528.551 485.002 528.835L476.036 533.841C475.745 534.003 475.393 534.01 475.096 533.86L473.704 533.153C475.89 531.569 477.677 530.379 479.653 529.21C481.169 528.313 482.848 527.388 484.686 526.417Z" fill="white" fill-opacity="0.540975"/>
<path id="Path_42" fill-rule="evenodd" clip-rule="evenodd" d="M530.676 419.725C521.578 420.131 470.938 431.338 461.738 433.242C452.537 435.146 444.759 445.448 451.775 457.377C459.654 470.769 479.986 508.8 484.922 517.373C487.365 521.616 499.691 519.237 496.796 512.115C491.398 498.838 488.892 465.485 475.131 453.324C475.131 453.324 521.408 461.382 541.398 452.152C555.926 445.442 552.639 418.742 530.676 419.725Z" fill="url(#paint3_linear_0_118)"/>
</g>
<g id="LArm">
<path id="Path_43" fill-rule="evenodd" clip-rule="evenodd" d="M466.209 365.893C466.209 365.893 466.312 358.486 463.722 354.615C461.133 350.744 461.03 346.632 459.07 346.766C457.11 346.901 459.051 356.459 459.051 356.459C459.051 356.459 456.564 355.508 454.778 354.306C452.991 353.103 447.574 347.176 446.308 348.226C444.162 350.016 447.619 360.111 449.502 362.13C451.391 364.148 461.711 370.787 461.711 370.787L466.209 365.893Z" fill="url(#paint4_linear_0_118)"/>
<path id="Path_44" fill-rule="evenodd" clip-rule="evenodd" d="M522.123 361.454C517.89 371.276 510.141 389.32 506.946 394.703C502.942 401.444 496.628 404.414 489.236 399.413C481.469 394.157 460.082 373.657 459.455 369.014C458.833 364.37 464.068 358.799 468.805 361.683C473.541 364.568 493.223 380.956 493.223 380.956C493.223 380.956 501.166 360.583 507.555 348.782C513.089 338.572 528.565 346.523 522.123 361.454Z" fill="#6A5EE3"/>
<path id="Path_45" fill-rule="evenodd" clip-rule="evenodd" d="M493.141 380.966C493.141 380.966 491.007 388.206 490.508 387.787C490.01 387.368 490.889 379.074 490.889 379.074L493.141 380.966Z" fill="black" fill-opacity="0.302803"/>
</g>
<g id="Body">
<path id="Path_46" fill-rule="evenodd" clip-rule="evenodd" d="M564.421 349.62C564.421 349.62 554.221 383.791 553.919 390.259C553.617 396.728 562.261 415.74 560.789 420.545C557.396 431.65 514.073 436.431 512.417 421.493C511.645 414.526 513.252 408.273 511.401 400.064C509.556 391.855 502.142 379.657 506.347 368.188C510.553 356.719 509.426 346.109 512.434 344.103C515.441 342.098 522.472 339.968 522.472 339.968C525.892 345.002 537.434 344.929 542.942 339.613C542.942 339.613 556.625 342.269 564.421 349.62Z" fill="#7367F0"/>
<path id="Path_47" fill-rule="evenodd" clip-rule="evenodd" d="M555.281 355.154C548.482 365.949 548.502 384.745 544.851 387.206C541.2 389.668 526.988 387.252 526.988 389.202C526.988 391.151 546.627 409.016 543.403 417.557C541.715 422.029 542.173 426.029 544.777 429.559L545.627 429.373C553.365 427.624 559.586 424.482 560.789 420.545C562.261 415.74 552.62 396.728 552.922 390.259C553.178 384.768 561.285 359.316 563.73 351.748C561.739 348.234 558.923 349.37 555.281 355.154Z" fill="black" fill-opacity="0.199355"/>
</g>
<g id="RArm">
<path id="Path_48" fill-rule="evenodd" clip-rule="evenodd" d="M543.687 383.794C543.687 383.794 535.096 376.187 532.467 375.304C529.837 374.421 514.434 373.36 514.532 375.355C514.642 377.493 522.915 377.37 523.772 378.421C524.629 379.472 524.824 386.659 528.064 387.465C531.298 388.272 540.993 389.663 540.993 389.663L543.687 383.794Z" fill="url(#paint5_linear_0_118)"/>
<path id="Path_49" fill-rule="evenodd" clip-rule="evenodd" d="M566.542 351.583C575.594 364.364 583.321 383.833 586.287 391.423C589.253 399.013 586.261 410.462 573.218 408.214C560.199 405.973 539.483 393.792 537.191 390.239C534.899 386.686 538.381 380.221 542.766 381.067C546.828 381.85 566.979 390.423 566.979 390.423C566.979 390.423 554.015 367.432 550.85 361.269C545.562 350.976 558.57 340.322 566.542 351.583Z" fill="#6A5EE3"/>
<path id="Path_50" fill-rule="evenodd" clip-rule="evenodd" d="M566.774 390.265C566.774 390.265 573.563 393.641 572.735 392.225C571.907 390.81 564.183 385.837 564.183 385.837L566.774 390.265Z" fill="black" fill-opacity="0.302803"/>
</g>
</g>
<g id="Men3.2">
<g id="LLeg_2">
<path id="Path_51" fill-rule="evenodd" clip-rule="evenodd" d="M234.061 509.194C234.061 509.194 233.925 517.906 239.272 521C244.617 524.095 252.9 529.844 252.9 529.844L221.392 530.913L222.29 509.116L234.061 509.194Z" fill="#F8CFCF"/>
<path id="Path_52" fill-rule="evenodd" clip-rule="evenodd" d="M220.292 518.794L219.779 532.926H227.098L227.599 531.105C227.599 531.105 230.355 530.992 231.947 531.779C233.63 532.61 233.856 533.014 233.856 533.014L257.07 533.063C257.07 533.063 258.215 528.495 251.139 525.191C244.062 521.887 238.91 517.197 237.931 516.717C236.946 516.233 234.957 515.96 233.556 517.096C232.155 518.232 231.048 521.219 227.874 521.312C223.789 521.433 221.442 516.404 220.292 518.794Z" fill="#4B4B4B"/>
<path id="Path 38" d="M240.131 518.25L237.724 520.577" stroke="white" stroke-width="2" stroke-linecap="round"/>
<path id="Path 38_2" d="M243.64 520.014L241.233 522.342" stroke="white" stroke-width="2" stroke-linecap="round"/>
<path id="Path 38_3" d="M247.149 521.779L244.742 524.107" stroke="white" stroke-width="2" stroke-linecap="round"/>
<path id="Path_53" fill-rule="evenodd" clip-rule="evenodd" d="M211 321C211 321 219.753 417.38 220.026 424.079C220.298 430.779 217.214 442.342 217.274 454.874C217.334 467.406 218.4 511.575 218.4 511.575L237.71 511.984C237.71 511.984 245.825 432.167 245.913 420.198C246 408.229 246.744 322.152 246.744 322.152L211 321Z" fill="#383838"/>
<path id="Path_54" opacity="0.283552" fill-rule="evenodd" clip-rule="evenodd" d="M224.919 427.079L224.94 427.318C225.231 431.404 222.693 444.846 217.327 467.645L217.274 454.874C217.215 442.565 220.189 431.192 220.037 424.443L220.026 424.079C219.934 421.822 218.879 409.379 217.52 393.872L218.155 396.143C221.878 409.595 224.132 419.908 224.919 427.079Z" fill="white" fill-opacity="0.192499"/>
</g>
<g id="RLeg">
<path id="Path_55" fill-rule="evenodd" clip-rule="evenodd" d="M187.477 507.966L183.753 530.525L197.481 530.456L197.915 507.613L187.477 507.966Z" fill="#F8CFCF"/>
<path id="Path_56" fill-rule="evenodd" clip-rule="evenodd" d="M186 517.724C184.656 518.015 183.683 519.182 183.637 520.556L183.526 523.91C181.469 526.192 180.562 533.039 180.562 533.039C180.562 536.155 200.806 536.136 202.694 533.249C202.779 533.118 202.785 532.963 202.76 532.809C202.55 531.538 201.435 525.385 199.289 523.707L199.277 520.384C199.271 519.031 198.361 517.849 197.054 517.498L194.991 516.944C192.984 514.017 190.249 514.121 187.906 517.31L186 517.724Z" fill="#4B4B4B"/>
<path id="Path 39" d="M188.685 519.748H194.243" stroke="white" stroke-width="2" stroke-linecap="round"/>
<path id="Path 39_2" d="M188.685 522.393H194.243" stroke="white" stroke-width="2" stroke-linecap="round"/>
<path id="Path 39_3" d="M189.569 525.037H193.359" stroke="white" stroke-width="2" stroke-linecap="round"/>
<path id="Path_57" fill-rule="evenodd" clip-rule="evenodd" d="M194.401 322.265C194.401 322.265 188.267 388.331 188.35 400.982C188.434 413.635 190.238 419.191 187.67 428.267C185.102 437.343 182.911 509.786 182.911 509.786L201.903 511.864C201.903 511.864 214.035 434.346 215.354 423.599C216.674 412.851 232.98 321.353 232.98 321.353L194.401 322.265Z" fill="#2E2E2E"/>
<path id="Path_58" opacity="0.283552" fill-rule="evenodd" clip-rule="evenodd" d="M199.53 367.105L198.372 371.298C194.98 383.673 191.849 396.76 192.669 415.455L192.709 416.309C192.91 420.358 190.334 443.861 184.98 486.816L184.471 489.835C183.945 492.915 183.478 495.542 183.068 497.717L183.185 493.913C183.867 472.914 185.704 435.215 187.67 428.267C190.238 419.191 188.434 413.635 188.35 400.982C188.292 392.126 191.28 357.097 193.078 336.877L194.401 322.265L202.417 322.076L202.437 324.326C202.578 345.099 201.609 359.358 199.53 367.105Z" fill="white" fill-opacity="0.192499"/>
</g>
<g id="LArm_2">
<g id="Group 6">
<path id="Path_59" fill-rule="evenodd" clip-rule="evenodd" d="M287.835 240.566C287.835 240.566 286.249 231.828 286.819 230.058C287.306 228.529 291.908 226.323 291.908 226.323C291.908 226.323 299.913 213.818 301.664 215.091C303.089 216.123 297.496 225.343 297.496 225.343C297.496 225.343 302.597 230.636 302.525 233.002C302.454 235.368 294.2 242.774 294.2 242.774L287.835 240.566Z" fill="#F8CFCF"/>
<path id="Path_60" fill-rule="evenodd" clip-rule="evenodd" d="M292.08 226.198C292.08 226.198 295.625 225.721 296.189 226.812C296.67 227.742 293.725 230.379 293.725 231.12C293.725 231.861 293.767 237.471 294.004 237.522C294.241 237.573 297.555 228.367 296.849 226.42C296.267 224.821 292.08 226.198 292.08 226.198Z" fill="#F28585"/>
</g>
<path id="Path_61" fill-rule="evenodd" clip-rule="evenodd" d="M245.546 251.684C236.26 243.662 222.317 258.124 237.865 271.569C243.796 276.699 262.428 289.493 266.995 292.307C274.266 296.785 280.241 292.744 282.697 285.697C284.78 279.723 297.238 247.743 295.653 243.046C294.619 239.982 289.071 237.001 286.286 239.412C282.216 242.935 269.766 273.839 269.766 273.839C269.766 273.839 256.103 260.805 245.546 251.684Z" fill="#877BFF"/>
<path id="Path_62" fill-rule="evenodd" clip-rule="evenodd" d="M269.766 273.839C269.766 273.839 273.843 278.786 274.138 278.03C274.432 277.275 270.904 270.918 270.904 270.918L269.766 273.839Z" fill="black" fill-opacity="0.159856"/>
<path id="Path 41" d="M285.204 241.393C288.444 239.893 291.983 241.748 293.933 244.723" stroke="#5386BF" stroke-linecap="round"/>
</g>
<g id="Head_2">
<path id="Path_63" fill-rule="evenodd" clip-rule="evenodd" d="M205.741 242.431C205.741 242.431 211.08 241.203 211.265 232.628C211.45 224.053 211.32 221.126 211.32 221.126L223.976 220.918C223.976 220.918 224.103 230.474 224.106 233.931C224.111 241.457 229.811 243.49 229.811 243.49C229.811 243.49 229.338 251.718 218.683 252.306C210.364 252.765 205.741 242.431 205.741 242.431Z" fill="#F8C5C5"/>
<g id="Head1">
<path id="Path_64" fill-rule="evenodd" clip-rule="evenodd" d="M235.251 211.881L234.968 219.986C237.36 217.23 238.975 213.814 239.453 209.433L235.251 211.881Z" fill="url(#paint6_linear_0_118)"/>
<path id="Path_65" fill-rule="evenodd" clip-rule="evenodd" d="M210.158 216.791C204.912 216.592 205.768 224.12 211.217 224.11C211.217 224.11 217.073 235.654 226.267 235.683C230.696 235.698 232.142 231.831 233.47 229.116C234.797 226.401 235.772 222.34 235.853 219.853C235.94 217.202 235.951 208.493 235.951 208.493L209.954 208.481L210.158 216.791Z" fill="#F8CFCF"/>
<path id="Path_66" fill-rule="evenodd" clip-rule="evenodd" d="M235.951 212.489H217.668C217.476 215.728 216.378 218.417 213.592 220.401C213.671 225.146 215.29 228.6 218.098 231.023C220.542 224.155 235.494 226.034 234.407 230.515C232.122 239.929 210.707 240.142 212.006 218.476C211.152 217.334 208.096 217.12 207.091 218.262C205.373 213.529 206.106 206.832 211.074 205.864C207.174 195.777 260.196 193.643 235.951 212.489Z" fill="#424242"/>
<path id="Path_67" d="M224.236 230.099C224.236 230.099 226.618 231.815 229.754 229.939" stroke="#CC6969" stroke-linecap="round"/>
<path id="Path 8_2" d="M210.976 221.089C211.03 219.881 210.654 218.922 209.398 218.729" stroke="#DE6767" stroke-linecap="round"/>
</g>
</g>
<g id="Body_2">
<path id="Path_68" fill-rule="evenodd" clip-rule="evenodd" d="M208.089 241L223.191 250.796L230.001 242.887C230.001 242.887 244.348 247.327 247.009 252.518C250.85 260.008 245.79 320.022 247.996 323.643C252.696 331.36 246.447 336.658 225.757 338.604C205.067 340.55 186.711 338.957 190.042 328.658C193.374 318.359 180.519 251.147 191.852 247.445C195.393 246.288 208.089 241 208.089 241Z" fill="#7367F0"/>
<path id="Path_69" fill-rule="evenodd" clip-rule="evenodd" d="M197.897 259.529C198.811 261.144 198.34 266.737 196.482 276.309C194.9 284.464 196.709 292.899 201.487 299.705L201.755 300.081C203.371 302.311 204.86 305.247 206.223 308.888C209.567 317.82 201.855 325.266 207.765 339.239L207.05 339.205C195.454 338.606 187.79 335.623 190.042 328.658C192.774 320.214 184.624 273.51 187.846 254.921C193.426 256.015 196.776 257.551 197.897 259.529Z" fill="black" fill-opacity="0.159856"/>
<path id="Path_70" fill-rule="evenodd" clip-rule="evenodd" d="M208.089 241L221.598 249.795C219.617 252.093 218.555 254.766 218.154 257.709C212.963 253.656 207.566 247.992 205.894 241.902L208.089 241Z" fill="#5E54C7"/>
<path id="Path_71" fill-rule="evenodd" clip-rule="evenodd" d="M224.259 249.566C226.543 251.109 228.366 253.839 229.849 256.944C231.627 253.376 232.308 248.664 232.308 243.639L230.078 242.759L224.259 249.566Z" fill="#5E54C7"/>
<path id="Path_72" fill-rule="evenodd" clip-rule="evenodd" d="M221.598 249.794L221.774 249.893C222.584 250.344 223.594 250.211 224.259 249.566C229.352 268.207 232.934 288.724 234.017 309.576L228.702 318.39L222.485 310.141C223.295 288.47 223.289 267.339 221.598 249.794Z" fill="#CBC6FF"/>
</g>
<g id="RArm_2">
<g id="Example Book Back">
<g id="Group 3">
<path id="Rectangle_16" d="M235.082 296.99C235.229 295.598 236.504 294.607 237.889 294.81L250.195 296.609C251.503 296.8 252.427 297.99 252.289 299.304L250.08 320.318C249.934 321.711 248.659 322.701 247.274 322.499L234.968 320.7C233.659 320.509 232.735 319.319 232.874 318.004L235.082 296.99Z" fill="#6182EC"/>
<path id="Rectangle_17" fill-rule="evenodd" clip-rule="evenodd" d="M236.548 296.567C236.699 295.128 238.052 294.128 239.472 294.407L252.34 296.93L261.145 296.783C262.624 296.758 263.791 298.033 263.636 299.504L261.431 320.486C261.301 321.724 260.267 322.671 259.022 322.692L249.616 322.849L236.317 320.241C235.065 319.995 234.207 318.834 234.341 317.565L236.548 296.567Z" fill="#96EFFA"/>
<path id="Rectangle_18" d="M238.873 301.487C238.97 300.561 239.835 299.913 240.752 300.081L246.657 301.161C247.48 301.312 248.048 302.071 247.961 302.902L247.709 305.297C247.611 306.223 246.746 306.871 245.83 306.703L239.924 305.622C239.102 305.472 238.534 304.713 238.621 303.881L238.873 301.487Z" fill="#74CFDB"/>
<path id="Rectangle_19" d="M251.357 297.631C251.403 297.192 251.796 296.873 252.236 296.919L252.753 296.974C253.192 297.02 253.511 297.414 253.465 297.853L250.917 322.097C250.87 322.536 250.477 322.855 250.037 322.809L249.52 322.755C249.081 322.708 248.762 322.315 248.808 321.875L251.357 297.631Z" fill="#EAEFFF"/>
<path id="Rectangle_20" d="M252.059 297.705C252.105 297.266 252.499 296.947 252.939 296.993L253.456 297.048C253.895 297.094 254.214 297.488 254.168 297.927L251.619 322.171C251.573 322.61 251.18 322.929 250.74 322.883L250.223 322.828C249.784 322.782 249.465 322.389 249.511 321.949L252.059 297.705Z" fill="#7AD2DD"/>
</g>
</g>
<path id="Path_73" fill-rule="evenodd" clip-rule="evenodd" d="M221.89 306.414C221.89 306.414 226.476 305.498 228.354 304.034C230.23 302.569 235.915 301.534 235.915 301.534L234.096 305.34C234.096 305.34 248.029 304.04 248.358 305.406C248.689 306.772 244.659 308.256 244.659 308.256C244.659 308.256 242.672 311.944 240.748 314.082C238.928 316.105 229.884 315.864 226.714 314.602C223.975 313.511 220.996 314.057 220.996 314.057L221.89 306.414Z" fill="#F8CFCF"/>
<path id="Path_74" fill-rule="evenodd" clip-rule="evenodd" d="M185.002 253.239C189.983 242.542 207.042 249.749 202.743 261.209C198.579 272.31 188.489 298.23 188.489 298.23C188.489 298.23 220.462 302.263 222.954 304.144C226.279 306.653 224.224 313.813 221.397 315.088C219.006 316.166 201.244 316.796 183.866 315.435C175.268 314.762 168.91 311.092 168.023 301.559C167.402 294.883 180.202 263.544 185.002 253.239Z" fill="#877BFF"/>
<path id="Path_75" fill-rule="evenodd" clip-rule="evenodd" d="M188.501 298.224C188.501 298.224 185.844 303.243 186.603 303.345C187.363 303.448 191.224 298.591 191.224 298.591L188.501 298.224Z" fill="black" fill-opacity="0.159856"/>
<path id="Path 40" d="M220.703 303.599C221.689 306.727 220.996 310.395 219.629 312.988" stroke="#5386BF" stroke-linecap="round"/>
</g>
</g>
<g id="Vase2">
<g id="Group 39">
<path id="Rectangle_21" fill-rule="evenodd" clip-rule="evenodd" d="M85.3633 443.346C93.6293 439.634 103.337 443.361 106.996 451.65L109.859 458.135C101.593 461.847 91.8852 458.12 88.2259 449.831L85.3633 443.346Z" fill="#02D3AF"/>
<path id="Path_76" fill-rule="evenodd" clip-rule="evenodd" d="M97.1743 447.302C105.424 453.172 110.773 459.714 113.238 466.926C115.715 474.173 116.73 486.321 116.269 503.347C116.262 503.611 116.468 503.83 116.73 503.837C116.991 503.844 117.209 503.637 117.216 503.373C117.68 486.241 116.657 473.996 114.133 466.614C111.598 459.197 106.122 452.5 97.7202 446.521C97.5065 446.369 97.2111 446.421 97.0604 446.636C96.9096 446.852 96.9606 447.15 97.1743 447.302Z" fill="#02B596"/>
<path id="Rectangle_22" fill-rule="evenodd" clip-rule="evenodd" d="M155.489 439.32C147.354 435.494 137.659 439.022 133.887 447.182L130.673 454.133C138.808 457.959 148.502 454.431 152.275 446.271L155.489 439.32Z" fill="#02D3AF"/>
<g id="Group 88">
<path id="Rectangle_23" d="M90.4973 423.385C98.3413 421.718 106.052 426.725 107.719 434.569L109.069 440.919C101.225 442.586 93.5144 437.579 91.8471 429.735L90.4973 423.385Z" fill="#02D3AF"/>
<path id="Path_77" fill-rule="evenodd" clip-rule="evenodd" d="M96.2659 428.452C102.311 432.672 106.401 437.223 108.546 442.099L108.678 442.406L108.81 442.729C111.008 448.185 114.647 462.475 119.706 485.545C119.763 485.802 120.016 485.966 120.271 485.91C120.527 485.854 120.688 485.599 120.631 485.342L120.005 482.496L119.272 479.202C114.701 458.761 111.42 446.281 109.412 441.715C107.189 436.662 102.983 431.981 96.8035 427.667C96.5881 427.517 96.2931 427.571 96.1447 427.787C95.9962 428.004 96.0505 428.301 96.2659 428.452Z" fill="#02B596"/>
</g>
<path id="Rectangle_24" fill-rule="evenodd" clip-rule="evenodd" d="M143.624 418.56C134.979 418.408 127.847 425.294 127.698 433.94L127.564 441.653C136.21 441.805 143.341 434.919 143.49 426.273L143.624 418.56Z" fill="#02D3AF"/>
<path id="Path_78" fill-rule="evenodd" clip-rule="evenodd" d="M137.95 421.662C132.389 429.822 128.326 437.699 125.762 445.293C123.203 452.874 120.65 464.581 118.1 480.424C118.058 480.684 118.233 480.93 118.491 480.972C118.749 481.014 118.992 480.837 119.034 480.577L119.348 478.651L119.563 477.353C121.929 463.186 124.296 452.6 126.659 445.601C129.193 438.095 133.217 430.295 138.731 422.203C138.879 421.985 138.824 421.688 138.609 421.539C138.393 421.389 138.099 421.444 137.95 421.662Z" fill="#02B596"/>
<g id="Group 87">
<path id="Path_79" fill-rule="evenodd" clip-rule="evenodd" d="M125.905 416.316C125.905 416.316 121.395 429.164 119.402 448.089C117.408 467.013 118.571 485.938 118.571 485.938L120.772 486.138C120.772 486.138 119.59 464.05 121.01 448.172C122.429 432.294 127.005 416.416 127.005 416.416L125.905 416.316Z" fill="#02B596"/>
<ellipse id="Oval_6" cx="128.202" cy="409.952" rx="7.26372" ry="11.1372" transform="rotate(14 128.202 409.952)" fill="#C2FFF4"/>
<ellipse id="Oval_7" cx="128.347" cy="410.625" rx="5.05298" ry="7.26093" transform="rotate(14 128.347 410.625)" fill="#02D3AF"/>
<path id="Path_80" fill-rule="evenodd" clip-rule="evenodd" d="M127.725 417.005L131.783 404.341C132.024 403.588 131.615 402.781 130.868 402.538C130.122 402.294 129.321 402.707 129.08 403.46L125.022 416.124C124.781 416.877 125.191 417.685 125.937 417.928C126.683 418.171 127.484 417.758 127.725 417.005Z" fill="url(#paint7_linear_0_118)"/>
</g>
<g id="Group 87_2">
<path id="Path_81" fill-rule="evenodd" clip-rule="evenodd" d="M103.951 403.586C103.951 403.586 109.779 415.892 113.74 434.505C117.7 453.117 118.522 472.06 118.522 472.06L116.354 472.489C116.354 472.489 115.221 450.399 112.149 434.756C109.078 419.113 102.867 403.801 102.867 403.801L103.951 403.586Z" fill="#02B596"/>
<ellipse id="Oval_8" cx="7.26372" cy="11.1372" rx="7.26372" ry="11.1372" transform="matrix(-0.939693 0.34202 0.34202 0.939693 104.018 384.546)" fill="#C2FFF4"/>
<ellipse id="Oval_9" cx="5.05298" cy="7.26093" rx="5.05298" ry="7.26093" transform="matrix(-0.939693 0.34202 0.34202 0.939693 103.192 389.63)" fill="#02D3AF"/>
<path id="Path_82" fill-rule="evenodd" clip-rule="evenodd" d="M102.212 404.462L96.853 392.291C96.5343 391.568 96.8573 390.722 97.5742 390.402C98.2912 390.082 99.1306 390.409 99.4493 391.132L104.809 403.303C105.127 404.026 104.804 404.872 104.087 405.192C103.37 405.512 102.531 405.185 102.212 404.462Z" fill="url(#paint8_linear_0_118)"/>
</g>
<path id="Path_83" fill-rule="evenodd" clip-rule="evenodd" d="M151.019 441.348C139.792 445.742 131.963 450.819 127.537 456.599C123.11 462.378 120.186 471.341 118.743 483.49C118.712 483.752 118.897 483.99 119.157 484.021C119.417 484.053 119.652 483.866 119.683 483.604C121.107 471.611 123.981 462.803 128.286 457.183C132.59 451.563 140.281 446.575 151.362 442.239C151.606 442.143 151.727 441.867 151.632 441.621C151.537 441.375 151.263 441.253 151.019 441.348Z" fill="#02B596"/>
</g>
<g id="Group 38">
<path id="Path 151" fill-rule="evenodd" clip-rule="evenodd" d="M120.929 476.595C115.598 457.598 94.5464 463.157 94.5464 463.157C94.5464 463.157 110.308 468.308 118.346 476.595H120.929Z" fill="#02B596"/>
<path id="Path 151_2" fill-rule="evenodd" clip-rule="evenodd" d="M120.875 473.677C126.206 454.68 143.974 457.458 143.974 457.458C143.974 457.458 133.183 466.329 123.458 473.677H120.875Z" fill="#02B596"/>
<path id="Path 151_3" fill-rule="evenodd" clip-rule="evenodd" d="M120.836 477.453C116.07 460.599 127.187 446.092 127.187 446.092C127.187 446.092 126.623 466.052 122.76 476.222L120.836 477.453Z" fill="#02B596"/>
<path id="Path 114" fill-rule="evenodd" clip-rule="evenodd" d="M116.173 473.677C114.066 467.587 111.97 459.082 110.399 450.837C118.162 453.959 120.655 466.397 118.162 473.677H116.173Z" fill="#02D3AF"/>
<g id="Group 89">
<path id="Rectangle_25" fill-rule="evenodd" clip-rule="evenodd" d="M101.022 469.762C100.919 468.584 101.848 467.571 103.03 467.571H133.682C134.865 467.571 135.794 468.584 135.691 469.762L129.784 537.355C129.693 538.396 128.821 539.195 127.775 539.195H108.937C107.892 539.195 107.02 538.396 106.929 537.355L101.022 469.762Z" fill="#7569EC"/>
<mask id="mask1_0_118" style="mask-type:luminance" maskUnits="userSpaceOnUse" x="101" y="467" width="35" height="73">
<path id="Rectangle_26" fill-rule="evenodd" clip-rule="evenodd" d="M101.022 469.762C100.919 468.584 101.848 467.571 103.03 467.571H133.682C134.865 467.571 135.794 468.584 135.691 469.762L129.784 537.355C129.693 538.396 128.821 539.195 127.775 539.195H108.937C107.892 539.195 107.02 538.396 106.929 537.355L101.022 469.762Z" fill="white"/>
</mask>
<g mask="url(#mask1_0_118)">
<path id="Rectangle_27" fill-rule="evenodd" clip-rule="evenodd" d="M96.4093 463.099H109.354C101.332 493.552 125.48 514.488 109.354 544.941H96.4093V463.099Z" fill="#8175FF"/>
</g>
</g>
</g>
</g>
<g id="Chair4_2">
<path id="Path 25" fill-rule="evenodd" clip-rule="evenodd" d="M678.746 449.882L667.303 540.29L673.303 540.21L684.746 450.728L678.746 449.882Z" fill="#91D6FF"/>
<path id="Path_84" fill-rule="evenodd" clip-rule="evenodd" d="M645.447 449.882L634.004 540.29L640.004 540.21L651.447 450.728L645.447 449.882Z" fill="#91D6FF"/>
<path id="Path_85" fill-rule="evenodd" clip-rule="evenodd" d="M718.494 449.882L729.937 540.29L723.938 540.21L712.495 450.728L718.494 449.882Z" fill="#BFE7FF"/>
<path id="Path_86" fill-rule="evenodd" clip-rule="evenodd" d="M641.071 464.093C635.854 464.093 631.626 459.864 631.626 454.648C631.626 449.431 635.854 445.203 641.071 445.203H678.833C684.555 445.203 689.337 440.849 689.873 435.153L695.91 370.96C696.446 365.264 701.228 360.91 706.95 360.91H730.65C737.108 360.91 742.2 366.408 741.705 372.848L735.481 453.855C735.037 459.632 730.22 464.093 724.425 464.093H641.071Z" fill="#91D6FF"/>
<path id="Combined Shape_2" d="M730.396 360.91C730.972 360.91 731.537 360.955 732.089 361.039C732.219 361.872 732.256 362.734 732.188 363.614L725.968 444.332C725.523 450.108 720.707 454.568 714.914 454.568H631.784C631.732 454.568 631.681 454.565 631.63 454.565C631.628 454.504 631.626 454.444 631.626 454.384C631.626 449.181 635.844 444.963 641.047 444.963H678.696C684.416 444.963 689.198 440.611 689.735 434.916L695.768 370.957C696.305 365.262 701.087 360.91 706.807 360.91H730.396Z" fill="#BFE7FF"/>
</g>
<g id="Wom2.4">
<g id="LLeg_3">
<path id="Path_87" fill-rule="evenodd" clip-rule="evenodd" d="M643.109 511.415C643.109 511.415 648.355 522.01 644.055 525.349C639.748 528.688 628.371 534.946 628.371 534.946L658.511 533.052L651.811 509.944L643.109 511.415Z" fill="url(#paint9_linear_0_118)"/>
<path id="Path_88" fill-rule="evenodd" clip-rule="evenodd" d="M655.525 521.003C654.577 521.455 656.136 525.712 652.799 525.413C649.463 525.115 647.368 520.714 644.908 521C642.447 521.285 640.885 525.717 636.201 528.803C631.517 531.89 624.572 535.572 625.037 538.675C625.503 541.779 636.432 542.61 641.968 541.582C647.505 540.556 650.09 538.33 653.682 538.507C657.274 538.685 659.531 538.245 660.657 535.939C661.783 533.632 656.62 520.48 655.525 521.003Z" fill="#EEDFE8"/>
<path id="Path_89" fill-rule="evenodd" clip-rule="evenodd" d="M655.259 535.167L654.952 535.149C650.5 534.774 647.446 537.574 643.209 538.363C638.971 539.153 627.795 539.426 626.01 536.775C625.926 536.65 625.847 536.521 625.774 536.391C625.175 537.128 624.892 537.917 625.037 538.836C625.503 541.789 636.432 542.58 641.97 541.603C647.507 540.626 650.091 538.507 653.684 538.676L654.322 538.7C657.546 538.788 659.602 538.294 660.66 536.232C660.918 535.729 660.86 534.649 660.601 533.283C659.099 534.311 657.202 535.226 655.259 535.167Z" fill="#EC7AA5"/>
<path id="Path_90" fill-rule="evenodd" clip-rule="evenodd" d="M688.512 418.032C679.387 418.439 628.602 429.672 619.375 431.58C610.148 433.488 602.347 443.814 609.383 455.772C617.286 469.194 637.675 507.314 642.626 515.907C645.076 520.16 657.437 517.775 654.534 510.636C649.121 497.329 646.607 463.898 632.807 451.709C632.807 451.709 679.217 459.786 699.264 450.534C713.834 443.808 710.537 417.047 688.512 418.032Z" fill="#413C75"/>
</g>
<g id="LArm_3">
<path id="Path_91" fill-rule="evenodd" clip-rule="evenodd" d="M624.859 361.074C624.859 361.074 624.963 355.65 622.365 351.77C619.768 347.89 619.665 343.768 617.7 343.903C615.734 344.038 617.68 353.618 617.68 353.618C617.68 353.618 615.187 352.665 613.395 351.46C611.604 350.255 606.171 344.314 604.901 345.367C602.749 347.16 606.216 357.279 608.104 359.302C609.999 361.326 619.348 366.98 619.348 366.98L646.883 394.719L651 379.993L624.859 361.074Z" fill="url(#paint10_linear_0_118)"/>
<path id="Path_92" fill-rule="evenodd" clip-rule="evenodd" d="M679.933 358.625C675.689 368.47 667.917 386.556 664.713 391.951C660.698 398.708 654.366 401.685 646.953 396.672C645.402 395.623 640.947 391.954 640.947 391.954C641.606 385.532 644.006 380.164 648.142 375.849L650.95 378.172C650.95 378.172 658.916 357.752 665.324 345.923C670.874 335.689 686.394 343.659 679.933 358.625Z" fill="#EA5455"/>
<path id="Path_93" fill-rule="evenodd" clip-rule="evenodd" d="M650.868 378.183C650.868 378.183 648.729 385.44 648.228 385.019C647.728 384.599 648.611 376.286 648.611 376.286L650.868 378.183Z" fill="black" fill-opacity="0.159856"/>
</g>
<g id="Head_3">
<path id="Path_94" fill-rule="evenodd" clip-rule="evenodd" d="M698.278 320.411V329.123L704.675 323.972C704.675 323.972 706.641 315.626 708.241 309.427C709.243 305.539 711.687 292.384 701.851 293C693.793 278.796 670.327 287.587 670.14 304.94C669.915 325.811 670.099 333.937 670.099 333.937C683.368 334.698 690.837 332.78 698.278 320.411Z" fill="#422851"/>
<path id="Path_95" fill-rule="evenodd" clip-rule="evenodd" d="M704.813 336.997C704.813 336.997 698.862 335.6 698.656 325.85C698.45 316.099 698.595 312.77 698.595 312.77L685.487 312.534C685.487 312.534 685.344 323.401 685.342 327.332C685.336 336.889 678.308 337.672 678.308 337.672C678.308 337.672 679.509 345.558 691.387 346.225C700.66 346.748 704.813 336.997 704.813 336.997Z" fill="url(#paint11_linear_0_118)"/>
<path id="Path_96" fill-rule="evenodd" clip-rule="evenodd" d="M701.65 307.901C707.498 307.675 706.544 316.235 700.469 316.224C700.469 316.224 696.941 328.384 684.692 328.384C674.744 328.384 674.097 314.211 674.007 311.384C673.91 308.369 673.898 298.465 673.898 298.465L701.878 298.452L701.65 307.901Z" fill="url(#paint12_linear_0_118)"/>
<path id="Path_97" fill-rule="evenodd" clip-rule="evenodd" d="M702.103 307.845C699.679 308.245 699.973 309.849 699.314 309.709C695.968 308.997 682.424 309.936 680.68 302.488C678.51 307.141 677.98 308.285 673.202 309.534V295.899L703.424 293C703.424 293 702.954 307.704 702.103 307.845Z" fill="#422851"/>
<path id="Path_98" d="M687.054 320.215C687.054 320.215 684.136 322.685 680.757 320.372" stroke="#F77B7B" stroke-width="1.5" stroke-linecap="round"/>
<path id="Path_99" d="M685.128 323.076C684.22 323.494 683.346 323.525 682.566 323.107" stroke="#F49494" stroke-linecap="round"/>
<path id="Path 8_3" d="M701.054 312.505C700.994 311.132 701.413 310.041 702.813 309.822" stroke="#F77B7B" stroke-linecap="round"/>
</g>
<g id="Body_3">
<path id="Path_100" fill-rule="evenodd" clip-rule="evenodd" d="M703.484 336C696.016 340.574 687.382 342.251 679.345 337.284C666.23 363.145 662.961 394.002 666.116 428.106C685.241 435.678 701.315 434.189 715 425.534L703.484 336Z" fill="#FFE4F4"/>
<g id="RLeg_2">
<path id="Path_101" fill-rule="evenodd" clip-rule="evenodd" d="M610.415 511.84C610.415 511.84 610.574 524.311 600.298 528.974C590.028 533.635 582.712 533.355 583.643 536.959C584.574 540.563 611.304 540.418 613.801 537.599C615.928 535.201 620.555 512.872 621.829 514.579L610.415 511.84Z" fill="url(#paint13_linear_0_118)"/>
<path id="Path_102" fill-rule="evenodd" clip-rule="evenodd" d="M617.879 529.452C616.304 528.319 614.98 534.853 610.703 533.036C606.425 531.219 609.798 525.213 607.106 524.105C604.414 522.998 599.216 528.953 592.312 530.401C585.408 531.848 579.803 533.114 578.21 535.801C576.838 538.111 578.21 538.849 578.21 538.849C578.21 538.849 584.856 542.168 588.986 542.899C594.986 543.96 612.325 544.667 614.225 542.732C615.392 541.545 618.666 530.019 617.879 529.452Z" fill="#EEDFE8"/>
<path id="Path_103" fill-rule="evenodd" clip-rule="evenodd" d="M577.835 536.073C576.534 538.196 578.587 539.3 578.834 539.422L579.824 539.844C581.705 540.626 585.946 542.302 589.081 542.901C594.829 544 612.629 544.651 614.543 542.762C614.88 542.43 615.295 541.217 615.698 539.641L614.476 539.774C608.598 540.397 595.477 541.524 589.002 539.998C583.255 538.644 580.108 536.417 578.674 535.117C578.325 535.416 578.043 535.734 577.835 536.073Z" fill="#EC7AA5"/>
<path id="Path_104" fill-rule="evenodd" clip-rule="evenodd" d="M717.102 414.177C717.102 414.177 730.368 442.192 711.725 451.812C693.696 461.115 639.724 450.112 639.724 450.112C639.724 450.112 640.689 457.877 639.724 464.802C637.205 482.889 625.226 513.023 622.691 516.809C619.186 522.046 608.509 518.097 608.308 513.737C608.107 509.377 616.357 453.693 617.612 443.075C618.86 432.456 622.8 430.913 634.309 428.01C636.953 427.343 668.22 419.573 671.084 419.8C695.695 421.746 717.102 414.177 717.102 414.177Z" fill="#524D87"/>
<path id="Path_105" fill-rule="evenodd" clip-rule="evenodd" d="M702.56 448.921C684.711 450.921 637.456 446.798 635.558 448.671C633.746 450.46 634.049 481.575 629.984 499.585L630.602 497.884C634.425 487.267 638.394 474.354 639.724 464.802C640.689 457.877 639.724 450.112 639.724 450.112L641.901 450.533C652.16 452.46 695.86 459.999 711.725 451.812C720.321 447.376 723.829 440.006 722.249 429.703C719.527 441.349 712.964 447.755 702.56 448.921Z" fill="white" fill-opacity="0.056108"/>
</g>
<path id="Path_106" fill-rule="evenodd" clip-rule="evenodd" d="M703.157 336.021C690.789 376.537 683.372 433.979 722 423.986C701.48 386.206 729.376 369.202 723.053 349.676C720.891 343 703.319 335.497 703.157 336.021Z" fill="#EA5455"/>
<path id="Path_107" fill-rule="evenodd" clip-rule="evenodd" d="M717.108 352.846C703.128 354.955 714.652 379.362 710.038 383.039C705.423 386.716 697.392 387.113 696.526 389.359C694.785 393.874 703.199 405.271 721.767 423.551L722 423.986C704.125 391.076 722.988 373.931 723.969 357.151C721.898 353.903 719.611 352.468 717.108 352.846Z" fill="black" fill-opacity="0.159856"/>
<path id="Path_108" fill-rule="evenodd" clip-rule="evenodd" d="M680 337C675.28 348.838 673.011 358.127 670.894 375.503C669.129 389.975 670.013 419.84 670.013 419.84L664.18 420.987C664.18 420.987 660.01 374.848 661.404 368.907C663.744 358.938 665.329 353.113 668.418 344C670.12 338.998 680 337 680 337Z" fill="#EA5455"/>
</g>
<g id="RArm_3">
<path id="Path_109" fill-rule="evenodd" clip-rule="evenodd" d="M700.56 382.017C700.56 382.017 692.944 374.392 690.307 373.507C687.67 372.622 673.223 371.559 673.32 373.559C673.431 375.701 682.728 375.578 683.587 376.632C684.447 377.685 685.642 385.888 688.892 386.697C692.135 387.506 698.857 389.9 698.857 389.9L728.782 405.362L725.594 389.901L700.56 382.017Z" fill="url(#paint14_linear_0_118)"/>
<path id="Path_110" fill-rule="evenodd" clip-rule="evenodd" d="M723.481 349.731C732.558 362.542 740.308 382.056 743.282 389.664C746.257 397.272 743.256 408.747 730.176 406.494C728.618 406.226 726.085 405.24 726.085 405.24C721.275 398.647 720.432 392.987 722.227 387.947L723.918 388.661C723.918 388.661 710.918 365.617 707.743 359.439C702.44 349.122 715.485 338.444 723.481 349.731Z" fill="#EA5455"/>
<path id="Path_111" fill-rule="evenodd" clip-rule="evenodd" d="M723.918 388.661C723.918 388.661 730.522 391.887 729.691 390.468C728.861 389.049 721.403 384.182 721.403 384.182L723.918 388.661Z" fill="black" fill-opacity="0.159856"/>
</g>
</g>
<g id="Example Ipad1">
<g id="Group 3_2">
<path id="Rectangle_28" fill-rule="evenodd" clip-rule="evenodd" d="M585.967 346.044C585.638 344.724 586.442 343.387 587.762 343.058L611.232 337.206C612.552 336.877 613.889 337.68 614.219 339.001L622.741 373.181C623.07 374.501 622.266 375.838 620.946 376.168L597.476 382.019C596.156 382.348 594.819 381.545 594.49 380.225L585.967 346.044Z" fill="url(#paint15_linear_0_118)"/>
<path id="Rectangle_29" fill-rule="evenodd" clip-rule="evenodd" d="M586.883 346.595C586.554 345.275 587.357 343.938 588.678 343.608L612.147 337.757C613.468 337.428 614.805 338.231 615.134 339.552L623.656 373.732C623.985 375.052 623.182 376.389 621.861 376.718L598.392 382.57C597.072 382.899 595.734 382.096 595.405 380.775L586.883 346.595Z" fill="#518DF8"/>
<path id="Rectangle_30" d="M587.884 346.896C587.588 345.708 588.311 344.504 589.499 344.208L611.571 338.705C612.759 338.408 613.963 339.131 614.259 340.32L621.964 371.223C622.261 372.411 621.537 373.615 620.349 373.911L598.277 379.414C597.089 379.71 595.885 378.987 595.589 377.799L587.884 346.896Z" fill="white"/>
</g>
</g>
<g id="Group 26_10">
<g id="Group 25">
<path id="Rectangle_31" fill-rule="evenodd" clip-rule="evenodd" d="M383.204 395.871H394.621V540.751H383.204L383.204 395.871Z" fill="#E9E9E9"/>
<path id="Rectangle_32" fill-rule="evenodd" clip-rule="evenodd" d="M271.375 400.634L361.564 400.634V427.542H286.403V540.751H271.375V400.634Z" fill="#D3D3D3"/>
<path id="Rectangle_33" fill-rule="evenodd" clip-rule="evenodd" d="M270.792 400.634H278.792V540.751H270.792V400.634Z" fill="#DBDBDB"/>
</g>
<g id="Group 25_2">
<path id="Rectangle_34" fill-rule="evenodd" clip-rule="evenodd" d="M663.43 400.634H679.43V540.751H663.43V400.634Z" fill="#E9E9E9"/>
<path id="Rectangle_35" fill-rule="evenodd" clip-rule="evenodd" d="M663.43 395.871H673.43V540.751H663.43L663.43 395.871Z" fill="#DBDBDB"/>
<path id="Rectangle_36" fill-rule="evenodd" clip-rule="evenodd" d="M531.006 400.634L670.006 400.634V427.19H549.714V540.751H531.006V400.634Z" fill="#D3D3D3"/>
<path id="Rectangle_37" fill-rule="evenodd" clip-rule="evenodd" d="M282.59 395.871L531.479 395.871V436.101H282.59V395.871Z" fill="#DBDBDB"/>
<path id="Rectangle_38" fill-rule="evenodd" clip-rule="evenodd" d="M525.771 400.634H537.188V436.101H525.771V400.634Z" fill="#E9E9E9"/>
<path id="Rectangle_39" fill-rule="evenodd" clip-rule="evenodd" d="M531.042 400.634H540.042V540.751H531.042V400.634Z" fill="#DBDBDB"/>
<path id="Rectangle_40" fill-rule="evenodd" clip-rule="evenodd" d="M532.476 403.015C532.476 399.07 535.674 395.871 539.62 395.871L684.745 395.871C688.69 395.871 691.889 399.07 691.889 403.015C691.889 406.96 688.69 410.158 684.745 410.158H539.62C535.674 410.158 532.476 406.96 532.476 403.015Z" fill="#E9E9E9"/>
<path id="Rectangle_41" fill-rule="evenodd" clip-rule="evenodd" d="M279.736 398.729H528.625V413.016H279.736V398.729Z" fill="#E9E9E9"/>
<path id="Rectangle_42" fill-rule="evenodd" clip-rule="evenodd" d="M258.805 403.015C258.805 399.07 262.003 395.871 265.948 395.871H542.413C546.358 395.871 549.556 399.07 549.556 403.015C549.556 406.96 546.358 410.158 542.413 410.158H265.948C262.003 410.158 258.805 406.96 258.805 403.015Z" fill="#DBDBDB"/>
</g>
</g>
<g id="Men2.8">
<g id="RLeg_3">
<path id="Path_112" fill-rule="evenodd" clip-rule="evenodd" d="M303.388 505.181L295.49 530.824L312.057 531.425C312.057 531.425 310.186 522.653 312.858 514.43C315 507.829 316.748 504.535 316.748 504.535L303.388 505.181Z" fill="#92691F"/>
<path id="Path_113" fill-rule="evenodd" clip-rule="evenodd" d="M311.623 524.378C311.623 524.378 317.947 530.238 324.027 532.409C330.108 534.58 332.436 534.604 332.87 535.421L332.948 535.577C334.199 538.159 333.441 541.589 319.58 541.779C316.21 541.825 312.708 539.868 303.409 537.797L302.738 541.417C297.534 541.348 294.497 540.528 293.628 538.956C292.319 536.605 294.545 525.011 296.08 524.791C297.616 524.571 297.919 529.287 302.042 529.39C306.171 529.493 311.623 524.378 311.623 524.378Z" fill="#391B0B"/>
<path id="Combined Shape_3" d="M310.282 525.637C310.441 525.825 310.674 526.096 310.964 526.423C311.545 527.077 312.356 527.959 313.279 528.864C314.202 529.771 315.234 530.699 316.254 531.449C317.28 532.203 318.273 532.763 319.122 532.957C320.852 533.352 322.112 532.935 322.939 532.428C323.087 532.337 323.22 532.241 323.341 532.148C323.521 532.219 323.701 532.288 323.88 532.354C323.692 532.516 323.467 532.69 323.201 532.854C322.276 533.421 320.883 533.872 319.011 533.444C318.06 533.227 316.999 532.618 315.957 531.852C314.911 531.082 313.86 530.136 312.928 529.221C311.995 528.305 311.176 527.415 310.59 526.755C310.297 526.425 310.062 526.152 309.9 525.961C309.874 525.93 309.851 525.901 309.828 525.875C309.966 525.769 310.098 525.668 310.223 525.568C310.241 525.59 310.261 525.613 310.282 525.637Z" fill="#81411E"/>
<path id="Path_114" fill-rule="evenodd" clip-rule="evenodd" d="M265.631 424.913C265.631 424.913 331.424 430.174 340.489 430.455C349.554 430.735 356.48 443.674 349.46 455.617C341.576 469.024 320.155 507.621 315.967 516.545C312.425 524.09 296.327 520.998 299.224 509.473C302.682 495.679 309.128 464.733 322.897 452.558C322.897 452.558 289.41 464.699 270.548 452.924C259.787 446.207 265.631 424.913 265.631 424.913Z" fill="#7A3636"/>
<path id="Path_115" fill-rule="evenodd" clip-rule="evenodd" d="M349.46 455.617L348.435 457.376C344.444 464.272 338.001 475.923 331.85 487.27L332.174 486.231C336.931 471.092 344.322 453.258 347.482 447.817C348.59 445.91 350.098 443.966 352.007 441.985C352.816 446.14 352.201 450.954 349.46 455.617Z" fill="white" fill-opacity="0.192499"/>
</g>
<g id="LLeg_4">
<path id="Path_116" fill-rule="evenodd" clip-rule="evenodd" d="M374.986 505.48C374.986 505.48 379.385 525.038 385.11 527.131C387.314 527.937 368.218 530.238 368.218 530.238L363.424 511.474L374.986 505.48Z" fill="#92691F"/>
<path id="Path_117" fill-rule="evenodd" clip-rule="evenodd" d="M365.46 523.631L365.141 540.142L371.723 540.192L371.79 536.48C371.79 536.48 376.92 539.556 380.394 540.638C385.066 542.097 403.525 541.333 405.61 539.11C407.696 536.877 407.741 533.324 403.459 532.887C399.178 532.451 392.098 531.151 389.05 528.818C385.363 526.007 383.96 521.547 382.889 521.543C381.25 521.537 381.123 526.784 372.804 526.858C369.637 526.886 365.46 523.631 365.46 523.631Z" fill="#391B0B"/>
<path id="Path_118" fill-rule="evenodd" clip-rule="evenodd" d="M381.186 523.015C381.186 523.015 385.431 529.639 387.955 530.598C390.478 531.547 392.512 530.482 392.512 530.482C392.512 530.482 388.161 528.748 386.48 525.722C382.672 518.867 381.911 522.354 381.186 523.015Z" fill="#81411E"/>
<path id="Path_119" fill-rule="evenodd" clip-rule="evenodd" d="M271.075 430.228C271.075 430.228 270.983 451.248 285.106 456.532C299.23 461.815 345.22 459.827 345.22 459.827C345.22 459.827 359.814 513.525 363.311 518.755C366.808 523.986 383.39 524.527 382.493 512.481C381.59 500.435 375.119 455.713 373.867 445.107C372.622 434.5 368.69 431.96 357.208 430.06C353.172 429.392 354.885 428.322 328.941 427.107C323.369 426.846 314.02 428.932 305.429 429.877C296.837 430.822 271.075 430.228 271.075 430.228Z" fill="#7A3636"/>
<path id="Path_120" fill-rule="evenodd" clip-rule="evenodd" d="M316.977 430.681L316.978 428.24L318.127 428.068C322.31 427.447 326.112 426.975 328.941 427.107L331.924 427.252C354.757 428.407 353.334 429.419 357.208 430.06L357.954 430.186C368.617 432.033 372.475 434.614 373.781 444.419L374.146 447.37C375.875 460.962 381.644 501.158 382.493 512.481C382.561 513.387 382.529 514.222 382.412 514.99L379.05 498.062C374.097 472.966 371.321 458.096 370.722 453.452L370.598 452.487C369.479 444.244 366.55 434.016 357.102 434.683L356.285 434.752C349.633 435.258 337.017 433.982 318.437 430.923L316.977 430.681Z" fill="white" fill-opacity="0.192499"/>
<ellipse id="Oval_10" cx="384.32" cy="446.912" rx="3.77561" ry="6.61391" transform="rotate(13 384.32 446.912)" fill="white" fill-opacity="0.192499"/>
</g>
<g id="RArm_4">
<path id="Path_121" fill-rule="evenodd" clip-rule="evenodd" d="M281.263 402.315C281.263 402.315 296.654 405.878 296.498 407.277C296.345 408.682 289.569 408.898 289.569 408.898C289.569 408.898 302.095 416.987 301.097 418.565C300.101 420.143 291.934 421.921 288.544 420.648C285.154 419.375 276.367 410.113 276.367 410.113L281.263 402.315Z" fill="url(#paint16_linear_0_118)"/>
<path id="Path_122" fill-rule="evenodd" clip-rule="evenodd" d="M281.402 356.716C276.247 363.079 258.669 382.513 258.669 382.513C258.669 382.513 276.247 395.033 280.673 397.681C287.932 402.021 280.551 413.537 275.228 412.258C268.014 410.52 249.806 397.959 241.251 392.875C232.695 387.792 235.969 379.585 242.299 372.095C247.161 366.343 257.732 354.557 265.169 344.211C272.569 333.917 291.406 344.37 281.402 356.716Z" fill="#EA5455"/>
<path id="Path 15" fill-rule="evenodd" clip-rule="evenodd" d="M258.669 382.513C258.669 382.513 253.721 387.281 254.235 387.65C254.749 388.019 260.713 383.979 260.713 383.979L258.669 382.513Z" fill="black" fill-opacity="0.159856"/>
</g>
<g id="Head_4">
<path id="Path_123" fill-rule="evenodd" clip-rule="evenodd" d="M312.095 310.007C316.417 310.481 316.111 318.089 310.849 318.486C309.773 325.821 305.937 329.315 301.261 329.719L301.52 340.813L280.835 340.801C280.835 340.801 286.66 332.964 286.369 322.235C286.079 311.506 286.564 301.427 286.564 301.427L313.357 301.908L312.095 310.007Z" fill="url(#paint17_linear_0_118)"/>
<path id="Path_124" fill-rule="evenodd" clip-rule="evenodd" d="M303.633 289.313C319.569 293.336 312.995 310.328 312.995 310.328C308.179 309.671 303.546 315.514 301.788 321.244C296.707 326.467 290.126 326.458 285.75 323.416C285.75 323.416 279.729 304.793 281.699 298.592C283.668 292.391 289.107 285.647 303.633 289.313Z" fill="#2C272E"/>
</g>
<g id="Body_4">
<path id="Path_125" fill-rule="evenodd" clip-rule="evenodd" d="M265.957 343.288C264.527 345.724 263.502 355.536 265.957 394.408C267.229 414.537 261.82 434.376 263.218 443.109C264.616 451.843 274.223 452.886 274.223 452.886L279.827 434.657L282.462 452.886C282.462 452.886 322.196 449.171 325.678 440.125C329.167 431.06 324.786 409.75 323.743 389.683C322.697 369.537 323.482 348.858 321.557 345.724C317.714 339.468 307.821 336.546 301.682 335.61C293.891 334.422 283.834 334.377 277.854 336.273C271.875 338.168 267.388 340.852 265.957 343.288Z" fill="#EA5455"/>
<path id="Path_126" fill-rule="evenodd" clip-rule="evenodd" d="M306.387 357.131C309.522 380.265 313.715 396.498 318.966 405.83C321.137 409.688 323.342 411.279 325.582 410.602L325.05 405.475C324.519 400.287 324.017 394.942 323.743 389.683C323.553 386.016 323.423 382.331 323.327 378.737L306.387 357.131Z" fill="black" fill-opacity="0.159856"/>
<path id="Path_127" fill-rule="evenodd" clip-rule="evenodd" d="M277.854 336.273C277.492 336.388 277.141 336.507 276.802 336.631C285.387 340.374 299.562 339.874 307.268 336.825C305.26 336.258 303.335 335.862 301.682 335.61C293.891 334.422 283.834 334.377 277.854 336.273Z" fill="#E5AA41"/>
</g>
<g id="LArm_4">
<path id="Path_128" fill-rule="evenodd" clip-rule="evenodd" d="M383.154 377.168C383.154 377.168 395.939 368.633 398.198 366.919C400.451 365.212 403.277 352.268 401.525 350.452C400.679 349.573 394.283 355.486 393.142 356.278C392.009 357.062 386.209 360.556 386.209 360.556C386.209 360.556 387.85 350.648 386.437 349.849C385.392 349.268 383.302 351.818 383.022 354.513C382.742 357.208 379.835 360.723 379.46 364.813C379.29 366.599 377.531 370.013 377.531 370.013L383.154 377.168Z" fill="url(#paint18_linear_0_118)"/>
<path id="Path_129" fill-rule="evenodd" clip-rule="evenodd" d="M307.014 360.801C311.913 370.981 320.234 385.863 324.803 394.589C330.211 404.915 336.655 409.29 349.652 401.628C360.537 395.211 376.233 384.89 384.343 379.281C391.89 374.061 382.969 361.175 375.84 365.529C366.381 371.297 342.194 382.728 342.194 382.728C342.194 382.728 329.747 359.991 324.579 349.075C318.004 335.201 297.534 341.101 307.014 360.801Z" fill="#EA5455"/>
<path id="Path_130" fill-rule="evenodd" clip-rule="evenodd" d="M342.194 382.728C342.194 382.728 344.47 390.744 345.007 390.427C345.544 390.111 344.63 381.579 344.63 381.579L342.194 382.728Z" fill="black" fill-opacity="0.159856"/>
</g>
</g>
<g id="Chair8">
<path id="Path_131" fill-rule="evenodd" clip-rule="evenodd" d="M291.768 461.221L280.325 542.179L286.324 542.1L297.767 462.067L291.768 461.221Z" fill="#BFE7FF"/>
<path id="Path_132" fill-rule="evenodd" clip-rule="evenodd" d="M329.93 461.221L341.373 542.179L335.373 542.1L323.93 462.067L329.93 461.221Z" fill="#91D6FF"/>
<path id="Path_133" fill-rule="evenodd" clip-rule="evenodd" d="M256.883 461.221L245.44 542.179L251.439 542.1L262.882 462.067L256.883 461.221Z" fill="#BFE7FF"/>
<path id="Path_134" fill-rule="evenodd" clip-rule="evenodd" d="M334.306 465.983C339.523 465.983 343.751 461.754 343.751 456.538C343.751 451.321 339.523 447.092 334.306 447.092H296.544C290.822 447.092 286.04 442.739 285.505 437.043L279.467 372.85C278.931 367.153 274.149 362.8 268.427 362.8H244.727C238.269 362.8 233.177 368.298 233.672 374.737L239.896 455.744C240.34 461.522 245.157 465.983 250.952 465.983H334.306Z" fill="#BFE7FF"/>
<path id="Combined Shape_4" d="M280.555 446.222C281 451.998 285.817 456.459 291.611 456.459H343.593C343.645 456.459 343.696 456.455 343.747 456.454C343.749 456.394 343.751 456.333 343.751 456.273C343.751 451.07 339.533 446.853 334.33 446.853H296.681C290.961 446.853 286.179 442.501 285.642 436.806L279.609 372.846C279.266 369.21 277.191 366.124 274.248 364.366L280.555 446.222Z" fill="#91D6FF"/>
</g>
<g id="Front Laptop3">
<path id="Rectangle_43" fill-rule="evenodd" clip-rule="evenodd" d="M557.981 394.543C557.981 394.13 557.647 393.796 557.235 393.796H473.098C472.686 393.796 472.352 394.13 472.352 394.543V395.64C472.352 396.052 472.686 396.386 473.098 396.386H557.235C557.647 396.386 557.981 396.052 557.981 395.64V394.543Z" fill="url(#paint19_linear_0_118)"/>
<path id="Rectangle_44" fill-rule="evenodd" clip-rule="evenodd" d="M557.989 394.543C557.989 394.13 557.655 393.796 557.243 393.796H524.916C524.504 393.796 524.169 394.13 524.169 394.543V395.64C524.169 396.052 524.504 396.386 524.916 396.386H557.243C557.655 396.386 557.989 396.052 557.989 395.64V394.543Z" fill="#518DF8"/>
<path id="Rectangle_45" fill-rule="evenodd" clip-rule="evenodd" d="M564.093 358.353C564.368 356.201 562.692 354.296 560.522 354.296H504.711C502.899 354.296 501.37 355.642 501.14 357.439L496.989 389.852C496.713 392.004 498.39 393.909 500.56 393.909H556.371C558.182 393.909 559.712 392.563 559.942 390.766L564.093 358.353Z" fill="#518DF8"/>
<path id="Rectangle_46" fill-rule="evenodd" clip-rule="evenodd" d="M562.394 358.353C562.669 356.201 560.993 354.296 558.823 354.296H504.191C502.38 354.296 500.851 355.642 500.621 357.439L496.47 389.852C496.194 392.004 497.871 393.909 500.04 393.909H554.672C556.483 393.909 558.013 392.563 558.243 390.766L562.394 358.353Z" fill="url(#paint20_linear_0_118)"/>
<path id="Rectangle_47" d="M560.445 359.821C560.693 357.884 559.184 356.17 557.231 356.17H505.473C503.842 356.17 502.466 357.381 502.259 358.999L498.519 388.236C498.271 390.173 499.78 391.887 501.732 391.887H553.491C555.121 391.887 556.498 390.675 556.705 389.058L560.445 359.821Z" fill="white"/>
</g>
<g id="Wom3.8">
<g id="RArm_5">
<path id="Path_135" fill-rule="evenodd" clip-rule="evenodd" d="M423.644 404.22C423.644 404.22 437.245 407.393 437.107 408.638C436.972 409.89 430.984 410.082 430.984 410.082C430.984 410.082 442.054 417.285 441.172 418.69C440.291 420.095 433.074 421.678 430.079 420.545C427.083 419.412 419.317 411.164 419.317 411.164L397.53 399.463L404.813 389.858L423.644 404.22Z" fill="url(#paint21_linear_0_118)"/>
<path id="Path_136" fill-rule="evenodd" clip-rule="evenodd" d="M423.767 363.617C419.212 369.282 403.678 386.588 403.678 386.588L406.744 388.889L396.772 400.985C396.772 400.985 390.404 397.083 388.285 395.815C380.725 391.288 383.617 383.98 389.211 377.311C393.508 372.189 402.849 361.695 409.422 352.482C415.961 343.316 432.608 352.624 423.767 363.617Z" fill="#FFB66F"/>
<path id="Path 15_2" fill-rule="evenodd" clip-rule="evenodd" d="M403.678 386.588C403.678 386.588 399.305 390.833 399.759 391.162C400.214 391.491 405.484 387.893 405.484 387.893L403.678 386.588Z" fill="black" fill-opacity="0.159856"/>
<path id="Path 76" fill-rule="evenodd" clip-rule="evenodd" d="M406.127 387.623L393.129 400.491L399.628 404.744L408.556 389.459L406.127 387.623Z" fill="#FFEDC2"/>
</g>
<g id="LLeg_5">
<path id="Path_137" fill-rule="evenodd" clip-rule="evenodd" d="M447.635 503.233L440.604 525.882L452.422 526.413C452.422 526.413 450.756 518.665 453.134 511.403C455.041 505.572 456.598 502.663 456.598 502.663L447.635 503.233Z" fill="url(#paint22_linear_0_118)"/>
<path id="Path_138" fill-rule="evenodd" clip-rule="evenodd" d="M452.518 519.78C452.518 519.78 452.271 525.547 454.285 527.369C456.298 529.19 466.978 535.917 467.873 537.272C468.768 538.628 467.455 540.283 467.455 540.283C467.455 540.283 456.551 541.993 451.407 539.354C447.694 537.448 445.041 535.891 445.041 535.891L443.901 538.82L437.947 537.965C437.947 537.965 436.112 533.316 436.9 531.004C437.689 528.692 441.758 517.889 441.758 517.889C441.758 517.889 452.518 519.78 452.518 519.78Z" fill="#391B0B"/>
<path id="Path_139" fill-rule="evenodd" clip-rule="evenodd" d="M413.248 426.031C422.137 426.898 465.921 437.326 474.936 439.178C483.951 441.03 491.573 451.051 484.698 462.654C476.977 475.679 455.15 516.158 455.15 516.158C455.015 516.191 454.883 516.249 454.747 516.249C450.307 516.249 446.349 515.641 442.538 512.985C442.538 512.985 448.328 470.54 461.812 458.712C461.812 458.712 426.994 471.231 409.582 457.571C399.31 449.513 403.452 425.075 413.248 426.031Z" fill="#33373E"/>
<path id="Combined Shape_5" d="M481.574 442.255C481.733 442.379 481.89 442.507 482.044 442.637L479.766 471.245C479.574 471.585 479.379 471.928 479.183 472.277L481.574 442.255Z" fill="white" fill-opacity="0.192499"/>
</g>
<g id="RLeg_4">
<path id="Path_140" fill-rule="evenodd" clip-rule="evenodd" d="M513.095 501.444C513.095 501.444 516.972 518.714 522.018 520.562C523.96 521.273 510.032 523.305 510.032 523.305L505.806 506.737L513.095 501.444Z" fill="url(#paint23_linear_0_118)"/>
<path id="Path_141" fill-rule="evenodd" clip-rule="evenodd" d="M508.256 518.544L511.935 540.165L518.311 539.157L517.523 533.811C517.523 533.811 520.32 538.468 523.439 538.267C526.567 538.065 542.209 535.707 542.209 535.707C542.209 535.707 542.561 530.529 535.365 529.346C529.381 528.363 519.176 516.809 519.176 516.809L508.256 518.544Z" fill="#391B0B"/>
<path id="Path_142" fill-rule="evenodd" clip-rule="evenodd" d="M420.705 423.171C420.705 423.171 407.873 450.35 425.906 459.682C443.345 468.708 489.749 457.063 489.749 457.063C489.749 457.063 488.816 464.596 489.749 471.314C492.185 488.861 504.168 510.449 505.258 514.007C505.806 515.798 519.17 513.151 519.17 511.026C519.17 508.901 512.352 460.537 511.139 450.236C509.931 439.934 506.12 438.438 494.987 435.622C492.43 434.975 459.283 427.436 456.513 427.656C432.706 429.544 420.705 423.171 420.705 423.171Z" fill="#42474F"/>
<path id="Path_143" fill-rule="evenodd" clip-rule="evenodd" d="M456.513 427.656C459.283 427.436 492.43 434.975 494.987 435.622L496.815 436.091C506.31 438.575 509.83 440.428 511.052 449.547L511.381 452.165C512.383 459.804 515.091 477.769 517.234 492.725C514.816 487.228 512.815 481.129 511.231 474.427C507.539 458.808 508.329 445.982 507.338 443.736C506.346 441.49 457.859 434.32 449.527 432.84C445.901 432.196 443.855 430.599 443.39 428.048C447.416 428.161 451.79 428.031 456.513 427.656Z" fill="white" fill-opacity="0.192499"/>
</g>
<g id="Head_5">
<path id="Path_144" fill-rule="evenodd" clip-rule="evenodd" d="M450.203 318.877C454.055 319.299 453.782 326.08 449.093 326.434C448.134 332.97 444.716 336.084 440.549 336.444L440.78 346.331L422.348 346.32C422.348 346.32 427.538 339.336 427.28 329.775C427.021 320.213 427.453 311.231 427.453 311.231L451.327 311.66L450.203 318.877Z" fill="url(#paint24_linear_0_118)"/>
<path id="Path_145" fill-rule="evenodd" clip-rule="evenodd" d="M451.041 319.385C446.555 317.609 443.24 325.257 439.808 330.573C436.375 335.889 427.481 334.985 426.255 330.573C421.614 320.908 417.615 307.769 423.031 306.691C423.793 292.723 460.307 296.021 451.041 319.385Z" fill="#9E5229"/>
<path id="Combined Shape_6" d="M426.019 301.156C425.814 301.316 425.617 301.482 425.429 301.656H433.816C440.877 309.618 442.286 321.471 438.607 332.001C438.902 331.727 439.179 331.427 439.433 331.099C442.718 320.664 441.145 309.094 434.116 301.239L434.042 301.156H426.019Z" fill="black" fill-opacity="0.199355"/>
<ellipse id="Oval_11" cx="4.4008" cy="4.40615" rx="4.4008" ry="4.40615" transform="matrix(-1 0 0 1 435.268 297)" fill="#FB9934"/>
</g>
<g id="Body_5">
<path id="Path_146" fill-rule="evenodd" clip-rule="evenodd" d="M454.709 348.001C458.79 353.987 465.59 374.303 465.976 378.873C466.411 384.145 460.751 392.544 460.658 400.176C460.575 407.809 464.879 426.915 463.586 429.062C462.303 431.209 419.69 443.621 417.289 442.601C414.889 441.581 406.602 430.581 408.495 426.11C410.399 421.64 418.265 411.499 417.365 405.408C416.475 399.318 411.307 376.836 408.741 369.184C406.185 361.532 407.038 353.499 411.808 350.206C414.168 348.577 420.466 343.948 431.682 343.97C442.898 343.991 454.393 347.537 454.709 348.001Z" fill="#FF9F43"/>
<path id="Path_147" fill-rule="evenodd" clip-rule="evenodd" d="M463.857 373.966L444.302 359.915L444.308 362.483C444.381 378.33 445.378 386.724 461.975 412.695L461.592 410.048C461.051 406.206 460.631 402.608 460.658 400.176C460.716 395.361 462.991 390.241 464.553 385.793L463.857 373.966Z" fill="black" fill-opacity="0.159856"/>
<path id="Path 68" fill-rule="evenodd" clip-rule="evenodd" d="M442.045 343.532C442.045 343.532 442.517 346.106 440.451 346.106C438.384 346.106 424.524 346.562 422.647 345.748C420.77 344.934 421.334 343.532 421.334 343.532H442.045Z" fill="#FFF6E1"/>
</g>
<g id="LArm_5">
<path id="Path_148" fill-rule="evenodd" clip-rule="evenodd" d="M511.124 378.861C511.124 378.861 522.411 371.328 524.406 369.815C526.394 368.309 528.889 356.885 527.342 355.283C526.595 354.507 520.949 359.725 519.942 360.424C518.941 361.116 513.821 364.2 513.821 364.2C513.821 364.2 515.27 355.456 514.022 354.751C513.1 354.238 511.254 356.488 511.008 358.866C510.761 361.244 508.194 364.347 507.863 367.956C507.713 369.533 507.129 371.577 507.129 371.577L475.814 385.025L479.09 399.648L511.124 378.861Z" fill="url(#paint25_linear_0_118)"/>
<path id="Path_149" fill-rule="evenodd" clip-rule="evenodd" d="M443.907 364.416C448.232 373.4 455.577 386.534 459.611 394.235C464.385 403.349 470.074 407.21 481.548 400.448C482.891 399.656 485.796 397.892 485.796 397.892L478.692 382.12L474.964 383.768C474.964 383.768 463.975 363.701 459.413 354.067C453.609 341.822 435.537 347.03 443.907 364.416Z" fill="#FFB66F"/>
<path id="Path_150" fill-rule="evenodd" clip-rule="evenodd" d="M474.964 383.768C474.964 383.768 476.973 390.842 477.447 390.563C477.921 390.283 477.114 382.753 477.114 382.753L474.964 383.768Z" fill="black" fill-opacity="0.159856"/>
<path id="Path 75" fill-rule="evenodd" clip-rule="evenodd" d="M478.592 381.423L483.539 401.058L490.901 397.077L481.241 379.894L478.592 381.423Z" fill="#FFEDC2"/>
</g>
<path id="Path_151" fill-rule="evenodd" clip-rule="evenodd" d="M431.339 298.15C431.339 298.15 427.191 292.84 422.401 294.233C417.61 295.626 413.277 304.165 415.334 312.191C417.381 320.219 415.693 324.797 413.21 330.207C406.538 344.76 429.636 354 429.636 354C429.636 354 427.834 343.217 431.339 336.705C434.95 329.999 437 321.399 437 316.137C437 306.986 431.339 298.15 431.339 298.15Z" fill="#9E5229"/>
</g>
<g id="Chair8_2">
<path id="Path_152" fill-rule="evenodd" clip-rule="evenodd" d="M430.658 461.221L442.101 542.179L436.101 542.1L424.658 462.067L430.658 461.221Z" fill="#91D6FF"/>
<path id="Path_153" fill-rule="evenodd" clip-rule="evenodd" d="M463.957 461.221L475.4 542.179L469.4 542.1L457.957 462.067L463.957 461.221Z" fill="#91D6FF"/>
<path id="Path_154" fill-rule="evenodd" clip-rule="evenodd" d="M390.91 461.221L379.467 542.179L385.466 542.1L396.909 462.067L390.91 461.221Z" fill="#BFE7FF"/>
<path id="Path_155" fill-rule="evenodd" clip-rule="evenodd" d="M468.333 465.983C473.549 465.983 477.778 461.754 477.778 456.538C477.778 451.321 473.549 447.092 468.333 447.092H430.571C424.849 447.092 420.067 442.739 419.531 437.043L413.493 372.85C412.958 367.153 408.176 362.8 402.454 362.8H378.754C372.295 362.8 367.204 368.298 367.699 374.737L373.923 455.744C374.367 461.522 379.184 465.983 384.978 465.983H468.333Z" fill="#BFE7FF"/>
<path id="Combined Shape_7" d="M414.582 446.222C415.027 451.998 419.844 456.459 425.637 456.459H477.62C477.671 456.459 477.723 456.455 477.774 456.454C477.775 456.394 477.778 456.333 477.778 456.273C477.778 451.07 473.56 446.853 468.357 446.853H430.708C424.988 446.853 420.206 442.501 419.669 436.806L413.635 372.846C413.292 369.21 411.218 366.124 408.275 364.366L414.582 446.222Z" fill="#91D6FF"/>
</g>
</g>
</g>
<defs>
<filter id="filter0_dd_0_118" x="69.8556" y="83.0082" width="191.801" height="107.428" filterUnits="userSpaceOnUse" color-interpolation-filters="sRGB">
<feFlood flood-opacity="0" result="BackgroundImageFix"/>
<feColorMatrix in="SourceAlpha" type="matrix" values="0 0 0 0 0 0 0 0 0 0 0 0 0 0 0 0 0 0 127 0" result="hardAlpha"/>
<feOffset dx="8" dy="9"/>
<feGaussianBlur stdDeviation="14"/>
<feColorMatrix type="matrix" values="0 0 0 0 0.0755213 0 0 0 0 0.582569 0 0 0 0 0.878793 0 0 0 0.229458 0"/>
<feBlend mode="normal" in2="BackgroundImageFix" result="effect1_dropShadow_0_118"/>
<feColorMatrix in="SourceAlpha" type="matrix" values="0 0 0 0 0 0 0 0 0 0 0 0 0 0 0 0 0 0 127 0" result="hardAlpha"/>
<feOffset dy="2"/>
<feGaussianBlur stdDeviation="7.5"/>
<feColorMatrix type="matrix" values="0 0 0 0 0.503982 0 0 0 0 0.700178 0 0 0 0 1 0 0 0 0.233829 0"/>
<feBlend mode="normal" in2="effect1_dropShadow_0_118" result="effect2_dropShadow_0_118"/>
<feBlend mode="normal" in="SourceGraphic" in2="effect2_dropShadow_0_118" result="shape"/>
</filter>
<filter id="filter1_dd_0_118" x="69.8556" y="141.592" width="224.949" height="198.68" filterUnits="userSpaceOnUse" color-interpolation-filters="sRGB">
<feFlood flood-opacity="0" result="BackgroundImageFix"/>
<feColorMatrix in="SourceAlpha" type="matrix" values="0 0 0 0 0 0 0 0 0 0 0 0 0 0 0 0 0 0 127 0" result="hardAlpha"/>
<feOffset dx="8" dy="9"/>
<feGaussianBlur stdDeviation="14"/>
<feColorMatrix type="matrix" values="0 0 0 0 0.0755213 0 0 0 0 0.582569 0 0 0 0 0.878793 0 0 0 0.229458 0"/>
<feBlend mode="normal" in2="BackgroundImageFix" result="effect1_dropShadow_0_118"/>
<feColorMatrix in="SourceAlpha" type="matrix" values="0 0 0 0 0 0 0 0 0 0 0 0 0 0 0 0 0 0 127 0" result="hardAlpha"/>
<feOffset dy="2"/>
<feGaussianBlur stdDeviation="7.5"/>
<feColorMatrix type="matrix" values="0 0 0 0 0.503982 0 0 0 0 0.700178 0 0 0 0 1 0 0 0 0.233829 0"/>
<feBlend mode="normal" in2="effect1_dropShadow_0_118" result="effect2_dropShadow_0_118"/>
<feBlend mode="normal" in="SourceGraphic" in2="effect2_dropShadow_0_118" result="shape"/>
</filter>
<filter id="filter2_d_0_118" x="95.5055" y="202.89" width="161.424" height="97.3127" filterUnits="userSpaceOnUse" color-interpolation-filters="sRGB">
<feFlood flood-opacity="0" result="BackgroundImageFix"/>
<feColorMatrix in="SourceAlpha" type="matrix" values="0 0 0 0 0 0 0 0 0 0 0 0 0 0 0 0 0 0 127 0" result="hardAlpha"/>
<feOffset dy="13"/>
<feGaussianBlur stdDeviation="7.5"/>
<feColorMatrix type="matrix" values="0 0 0 0 0 0 0 0 0 0 0 0 0 0 0 0 0 0 0.144395 0"/>
<feBlend mode="normal" in2="BackgroundImageFix" result="effect1_dropShadow_0_118"/>
<feBlend mode="normal" in="SourceGraphic" in2="effect1_dropShadow_0_118" result="shape"/>
</filter>
<filter id="filter3_d_0_118" x="275.233" y="105.237" width="272.181" height="197.485" filterUnits="userSpaceOnUse" color-interpolation-filters="sRGB">
<feFlood flood-opacity="0" result="BackgroundImageFix"/>
<feColorMatrix in="SourceAlpha" type="matrix" values="0 0 0 0 0 0 0 0 0 0 0 0 0 0 0 0 0 0 127 0" result="hardAlpha"/>
<feOffset dx="6" dy="6"/>
<feGaussianBlur stdDeviation="8"/>
<feColorMatrix type="matrix" values="0 0 0 0 0.70188 0 0 0 0 0.70188 0 0 0 0 0.70188 0 0 0 0.208725 0"/>
<feBlend mode="normal" in2="BackgroundImageFix" result="effect1_dropShadow_0_118"/>
<feBlend mode="normal" in="SourceGraphic" in2="effect1_dropShadow_0_118" result="shape"/>
</filter>
<linearGradient id="paint0_linear_0_118" x1="553.833" y1="311.939" x2="542.753" y2="361.416" gradientUnits="userSpaceOnUse">
<stop stop-color="#FFAFAF"/>
<stop offset="1" stop-color="#F07777"/>
</linearGradient>
<linearGradient id="paint1_linear_0_118" x1="552.972" y1="302.545" x2="546.324" y2="335.064" gradientUnits="userSpaceOnUse">
<stop stop-color="#FDC6C6"/>
<stop offset="1" stop-color="#FAB2B2"/>
</linearGradient>
<linearGradient id="paint2_linear_0_118" x1="505.962" y1="505.352" x2="504.369" y2="535.133" gradientUnits="userSpaceOnUse">
<stop stop-color="#FDC6C6"/>
<stop offset="1" stop-color="#FAB2B2"/>
</linearGradient>
<linearGradient id="paint3_linear_0_118" x1="474.891" y1="543.704" x2="426.817" y2="451.427" gradientUnits="userSpaceOnUse">
<stop stop-color="#28324F"/>
<stop offset="1" stop-color="#222735"/>
</linearGradient>
<linearGradient id="paint4_linear_0_118" x1="469.771" y1="340.915" x2="467.619" y2="369.518" gradientUnits="userSpaceOnUse">
<stop stop-color="#FDC6C6"/>
<stop offset="1" stop-color="#FAB2B2"/>
</linearGradient>
<linearGradient id="paint5_linear_0_118" x1="548.732" y1="370.46" x2="548.102" y2="388.93" gradientUnits="userSpaceOnUse">
<stop stop-color="#FDC6C6"/>
<stop offset="1" stop-color="#FAB2B2"/>
</linearGradient>
<linearGradient id="paint6_linear_0_118" x1="241.336" y1="202.269" x2="231.447" y2="203.194" gradientUnits="userSpaceOnUse">
<stop stop-color="#4D63A0"/>
<stop offset="1" stop-color="#222735"/>
</linearGradient>
<linearGradient id="paint7_linear_0_118" x1="126.011" y1="401.433" x2="126.011" y2="417.998" gradientUnits="userSpaceOnUse">
<stop stop-color="#FE62BE"/>
<stop offset="1" stop-color="#FDB3A8"/>
</linearGradient>
<linearGradient id="paint8_linear_0_118" x1="102.289" y1="388.795" x2="104.021" y2="405.27" gradientUnits="userSpaceOnUse">
<stop stop-color="#FE62BE"/>
<stop offset="1" stop-color="#FDB3A8"/>
</linearGradient>
<linearGradient id="paint9_linear_0_118" x1="663.726" y1="503.858" x2="662.13" y2="533.708" gradientUnits="userSpaceOnUse">
<stop stop-color="#FDC6C6"/>
<stop offset="1" stop-color="#FAB2B2"/>
</linearGradient>
<linearGradient id="paint10_linear_0_118" x1="659.095" y1="331.529" x2="654.855" y2="392.079" gradientUnits="userSpaceOnUse">
<stop stop-color="#FDC6C6"/>
<stop offset="1" stop-color="#FAB2B2"/>
</linearGradient>
<linearGradient id="paint11_linear_0_118" x1="713.441" y1="307.528" x2="702.217" y2="357.065" gradientUnits="userSpaceOnUse">
<stop stop-color="#FFAFAF"/>
<stop offset="1" stop-color="#F07777"/>
</linearGradient>
<linearGradient id="paint12_linear_0_118" x1="712.685" y1="298.112" x2="706.024" y2="330.709" gradientUnits="userSpaceOnUse">
<stop stop-color="#FDC6C6"/>
<stop offset="1" stop-color="#FAB2B2"/>
</linearGradient>
<linearGradient id="paint13_linear_0_118" x1="628.45" y1="505.061" x2="626.889" y2="538.334" gradientUnits="userSpaceOnUse">
<stop stop-color="#FDC6C6"/>
<stop offset="1" stop-color="#FAB2B2"/>
</linearGradient>
<linearGradient id="paint14_linear_0_118" x1="738.379" y1="364.401" x2="736.871" y2="403.785" gradientUnits="userSpaceOnUse">
<stop stop-color="#FDC6C6"/>
<stop offset="1" stop-color="#FAB2B2"/>
</linearGradient>
<linearGradient id="paint15_linear_0_118" x1="585.221" y1="334.275" x2="597.146" y2="382.102" gradientUnits="userSpaceOnUse">
<stop stop-color="#9FF6EC"/>
<stop offset="1" stop-color="#7D9DFF"/>
</linearGradient>
<linearGradient id="paint16_linear_0_118" x1="290.949" y1="390.304" x2="302.7" y2="416.424" gradientUnits="userSpaceOnUse">
<stop stop-color="#FDC6C6"/>
<stop offset="1" stop-color="#A47070"/>
</linearGradient>
<linearGradient id="paint17_linear_0_118" x1="321.017" y1="291.839" x2="317.541" y2="338.739" gradientUnits="userSpaceOnUse">
<stop stop-color="#FDC6C6"/>
<stop offset="1" stop-color="#A47070"/>
</linearGradient>
<linearGradient id="paint18_linear_0_118" x1="406.318" y1="343.095" x2="403.969" y2="375.735" gradientUnits="userSpaceOnUse">
<stop stop-color="#FDC6C6"/>
<stop offset="1" stop-color="#A47070"/>
</linearGradient>
<linearGradient id="paint19_linear_0_118" x1="551.737" y1="393.207" x2="551.737" y2="396.386" gradientUnits="userSpaceOnUse">
<stop stop-color="#9FF6EC"/>
<stop offset="1" stop-color="#7D9DFF"/>
</linearGradient>
<linearGradient id="paint20_linear_0_118" x1="558.03" y1="345.282" x2="558.03" y2="393.909" gradientUnits="userSpaceOnUse">
<stop stop-color="#9FF6EC"/>
<stop offset="1" stop-color="#7D9DFF"/>
</linearGradient>
<linearGradient id="paint21_linear_0_118" x1="421.208" y1="368.874" x2="441.753" y2="415.819" gradientUnits="userSpaceOnUse">
<stop stop-color="#FDC6C6"/>
<stop offset="1" stop-color="#FFCCA1"/>
</linearGradient>
<linearGradient id="paint22_linear_0_118" x1="459.365" y1="496.881" x2="456.668" y2="525.059" gradientUnits="userSpaceOnUse">
<stop stop-color="#FDC6C6"/>
<stop offset="1" stop-color="#FAB2B2"/>
</linearGradient>
<linearGradient id="paint23_linear_0_118" x1="525.041" y1="496.123" x2="522.808" y2="522.105" gradientUnits="userSpaceOnUse">
<stop stop-color="#FDC6C6"/>
<stop offset="1" stop-color="#FAB2B2"/>
</linearGradient>
<linearGradient id="paint24_linear_0_118" x1="458.153" y1="302.686" x2="455.055" y2="344.483" gradientUnits="userSpaceOnUse">
<stop stop-color="#FDC6C6"/>
<stop offset="1" stop-color="#FFCCA1"/>
</linearGradient>
<linearGradient id="paint25_linear_0_118" x1="536.825" y1="343.73" x2="533.833" y2="397.407" gradientUnits="userSpaceOnUse">
<stop stop-color="#FDC6C6"/>
<stop offset="1" stop-color="#FFCCA1"/>
</linearGradient>
</defs>
</svg>
